<svg xmlns="http://www.w3.org/2000/svg" viewBox="0 0 200 200"><path d="M63.4 80c.6-.6 1.2-1.3 1.2.1L63.1 116c-.1 1.2.4 1.8 1.4 2.3l3.6 1.3c1.2.5 1.3.7-.7.7H51.7c-1.6 0-1.2-.1.3-.7l5-1.3c.8-.3 1.1-.4 1.3-1.8l.8-11c.1-1.9-.4-1.8-2-2-4-.5-4.8-.4-8.9-.5-2.6 0-3-.2-4.8 1.9L34 116.6c-1.1 1.3-.2 2 1.2 2.2l4.8.9c2.4.4 2.2.7.2.7H26.3c-1.3 0-1.9-.1-.6-.7l1.6-.9c.8-.5 1-.7 1.5-1.2L63.4 80zm-3.7 9c.1-1.2-.1-2.3-1.9-.3l-10.2 11c-1.1 1.3-.3 1.8.7 1.9l9.1.4c1.8 0 1.9-.7 1.9-1.6l.4-11.4zm25.2-4.6-7.7 31.4c-.4 1.5-.6 2.3-1.5 2.5l-4.1 1.2c-.5.2-2.9.7.1.7h14.1c3.1 0 1.8-.5.5-.9l-3.1-.9c-.9-.3-1.5-.6-1.1-2.4l7.7-32.2c.5-1.7.6-2 1.8-2.4l2.8-.8c.9-.3.9-.4-.6-.4H81.4c-2.5 0-1.9.3-.2.7 0 0 1.2.3 2.5.6 0 .1 1.8.5 1.2 2.9zm46.5-2.4c-10.3-2.1-22.3 1.2-27.8 14-7.2 16.7 6.9 25.7 18.3 23 1.2-.3 1.7-.1 2.2-1.5l1.5-6.2c.2-.7.5-1.7-.8-2l-6.1-1.6c-1.3-.4-2.6-.6-.6-.6h12.6c1.4 0 1.4.3 1.1 1.3l-2.3 7.4c-.4 1.5-.5 1.7-1.6 2.1-18.4 7-30.7.5-32-12-1.1-11 12.3-30.8 39.2-25.1 1.5.3 1.6.6 1.2 2l-3 9.3c-.7 2.1-.8 1.6-.7-.6l.4-7.2c.1-1.9-.8-2.2-1.6-2.3zm38-2c.6-.6 1.2-1.3 1.2.1l-1.4 35.9c-.1 1.2.4 1.8 1.4 2.3l3.6 1.3c1.2.5 1.3.7-.7.7h-15.8c-1.6 0-1.2-.1.3-.7l5-1.3c.8-.3 1.1-.4 1.3-1.8l.8-11c.1-1.9-.4-1.8-2-2-4-.5-4.8-.4-8.9-.5-2.6 0-3-.2-4.8 1.9l-9.4 11.7c-1.1 1.3-.2 2 1.2 2.2l4.8.9c2.4.4 2.2.7.2.7h-13.5c-1.3 0-1.9-.1-.6-.7l1.6-.9c.8-.5 1-.7 1.5-1.2L169.4 80zm-3.7 9c.1-1.2-.1-2.3-1.9-.3l-10.2 11c-1.1 1.3-.3 1.8.7 1.9l9.1.4c1.8 0 1.9-.7 1.9-1.6l.4-11.4z" fill-rule="evenodd" clip-rule="evenodd"/></svg>