<svg fill="none" height="82" width="82" xmlns="http://www.w3.org/2000/svg"><clipPath id="a"><path d="M0 0h82v82H0z"/></clipPath><g clip-path="url(#a)"><path d="M41 0C18.394 0 .002 18.392.002 41s18.392 41 41 41c22.607 0 41-18.392 41-41S63.607 0 41 0zm0 76.69C21.322 76.69 5.313 60.68 5.313 41 5.312 21.32 21.322 5.31 41 5.31S76.69 21.32 76.69 41c0 19.68-16.01 35.69-35.69 35.69zM54.93 29.04h.323v-1.567h.584v-.277h-1.489v.277h.582zm1.423-1.425h.006l.511 1.425h.264l.511-1.425h.007v1.425h.304v-1.844h-.447l-.494 1.442h-.008l-.507-1.442h-.454v1.844h.307v-1.425zm-9.312-.42h-20.17l-3.06 4.917h20.147zm4.122.046-12.33 19.634H25.156l3.155-4.922h8.198l3.131-4.92H20.69l-3.131 4.92h4.489l-6.229 9.827h25.995l9.602-15.142 3.5 5.315H51.76l-2.99 4.922h9.348l3.246 4.905h5.963z" fill="#000"/></g></svg>