<svg xmlns="http://www.w3.org/2000/svg" viewBox="0 0 200 200" style="enable-background:new 0 0 200 200" xml:space="preserve"><path d="M25 25h150v150H25V25z" style="fill-rule:evenodd;clip-rule:evenodd;fill:#fff;fill-opacity:0" fill="none"/><path d="M42.5 110.5c-8.5 0-15.3-6.9-15.3-15.3s6.9-15.3 15.3-15.3c3.1 0 6 .9 8.4 2.5l41.7 28.1H42.5zm4.3-34.4c-7.1-4.6-9.1-14.1-4.5-21.2s14.1-9.1 21.2-4.5C66 52 68 54.3 69.2 57l21.3 48.6-43.7-29.5zm110.6 34.5c8.5 0 15.4-6.9 15.4-15.3S165.9 80 157.4 80c-3.1 0-6 .9-8.4 2.5l-41.8 28.2 50.2-.1zm-4.2-34.5c7.1-4.6 9.1-14.1 4.5-21.2s-14.1-9.1-21.2-4.5c-2.5 1.6-4.5 3.9-5.7 6.6l-21.4 48.7 43.8-29.6zm-47.1-28.8c-1.1.8-4.1 1.3-3.4 6.6l6.5 45.3 21.6-49.4c3.5-7.7 0-16.8-7.8-20.2-7.8-3.4-16.8 0-20.3 7.8-1.1 2.5-1.5 5.3-1.2 8h4.1c2.2.1 3.4.7.5 1.9zm-36.9 2.6c-3.4-7.7 0-16.8 7.8-20.2 7.7-3.4 16.8 0 20.3 7.8 1.2 2.7 1.6 5.7 1.1 8.7l-7.6 53.1-21.6-49.4zM163 169.7c-2.5 1-6.2 2-9.6 2-15.6 0-28.3-12-28.3-26.8s12.7-26.8 28.3-26.8c3.4 0 7.1.8 9.6 2v10.2c-2.8-1.9-6.2-2.9-9.6-2.9-9.6 0-17.5 7.8-17.5 17.4 0 9.6 7.8 17.4 17.5 17.4 3.5 0 6.8-1 9.6-2.8v10.3zm-94-49.9h10.4V171l-32-29.2v28.1H37v-51.2L69 148v-28.2zm45.2 23.4c3.2-2.4 5.9-4.6 5.9-10.5 0-7.8-6.3-12.9-14.1-12.9H85.4V170h23.1c8.2 0 14.4-6.2 14.4-14.4s-6.7-11.7-8.7-12.4zm-18.4-15.8h7.7c3.6 0 6.5 2.9 6.5 6.5s-2.9 6.5-6.5 6.5h-7.7v-13zm9.4 35h-9.4v-14.5h9.4c4 0 7.3 3.3 7.3 7.3s-3.3 7.2-7.3 7.2z" style="fill-rule:evenodd;clip-rule:evenodd"/></svg>