<svg fill="none" height="34" width="118" xmlns="http://www.w3.org/2000/svg"><clipPath id="a"><path d="M0 .158h118V34H0z"/></clipPath><g clip-path="url(#a)"><path d="M103.724 33.992c-2.335-.153-4.15-.878-5.582-2.227a8.073 8.073 0 0 1-1.553-2.096 1.043 1.043 0 0 0-.128-.221c-.01 0-.158.087-.33.194-.38.236-1.524.893-2.01 1.154-3.187 1.714-6.467 2.728-9.78 3.02-1.06.095-2.304.111-3.066.041-1.694-.157-3.071-.64-4.185-1.473-.279-.208-.94-.854-1.153-1.125a8.815 8.815 0 0 1-.59-.866l-.119-.206-.36.309c-1.968 1.695-4.01 2.755-6.034 3.13-.975.181-2.02.201-2.75.053-1.017-.207-1.756-.735-2.175-1.557-.483-.943-.6-2.226-.368-4.068.138-1.102.256-1.691.744-3.705.26-1.071.487-2.315.57-3.116.05-.476.05-1.173.001-1.497-.108-.717-.374-1.131-.849-1.322-.168-.069-.597-.082-.81-.027-.883.229-1.906 1.301-3.058 3.206-1.59 2.626-2.461 5.092-2.698 7.626-.05.53-.042 2.025.012 2.51.061.547.176 1.094.31 1.482l.13.377c.015.047-.007.048-.793.033-.876-.016-1.428-.059-2.03-.159-2.182-.36-3.417-1.235-3.956-2.802-.325-.945-.414-1.965-.306-3.48.074-1.044.222-1.906.543-3.168.297-1.167.44-1.9.535-2.736.053-.47.06-1.348.013-1.582-.154-.766-.512-1.175-1.148-1.31a1.851 1.851 0 0 0-.464-.028c-.235.009-.31.023-.474.087-.825.325-1.705 1.4-2.63 3.214a17.958 17.958 0 0 0-1.888 6.359c-.12 1.187-.12 2.878.002 3.99.065.598.2 1.243.33 1.582.018.047 0 .048-.69.032-1.03-.023-1.703-.104-2.455-.295-1.115-.283-2.013-.786-2.631-1.473-.42-.466-.783-1.159-.993-1.898a3.137 3.137 0 0 0-.078-.25 1.866 1.866 0 0 0-.244.204c-1.852 1.688-3.532 2.748-5.315 3.352-.986.335-2.064.52-3.018.52-1.405 0-2.414-.487-3.07-1.482-.261-.396-.406-.731-.538-1.243-.254-.985-.208-2.188.156-4.052.239-1.224.482-2.212 1.048-4.244.407-1.462.685-2.488.856-3.155.133-.525.142-.574.14-.849-.008-.898-.371-1.42-.996-1.43-.175-.001-.206.007-.394.104-.28.143-.501.286-1.043.674l-.462.33-.067.205c-.377 1.139-1.204 2.795-2.158 4.322-1.05 1.683-2.656 3.885-4.035 5.538-2.698 3.232-5.014 4.987-7.056 5.347-.382.067-.95.063-1.236-.009-1.266-.315-2.317-1.596-3.228-3.932-.077-.198-.461-1.58-1.19-4.295a899.356 899.356 0 0 0-1.178-4.358c-.368-1.28-.85-2.453-1.272-3.089-.323-.489-.73-.807-1.073-.842-.14-.014-.162-.007-.378.101-.226.114-.878.533-1.437.924-.156.11-.298.206-.314.216-.02.011-.242-.258-.618-.75-.207-.27-.414-.539-.623-.807-.031-.036.017-.087.415-.443.902-.81 1.799-1.623 2.692-2.442 1.223-1.124 1.932-1.7 2.75-2.238.875-.574 1.429-.793 2.078-.821 1.634-.073 2.719.907 3.307 2.985.14.497.204.828.418 2.178.56 3.52.796 4.79 1.165 6.256.438 1.744.926 2.762 1.445 3.018.14.069.183.078.309.069.568-.044 1.38-.93 2.495-2.725.918-1.479 1.474-2.67 1.671-3.581.05-.228.058-.341.06-.81 0-.452-.008-.572-.046-.709-.13-.463-.373-.773-.752-.96-.306-.15-.513-.19-1-.19-.572 0-1.074.095-1.645.31-.16.061-.259.087-.263.069a3.694 3.694 0 0 1 .132-.437c.458-1.352.997-2.395 1.701-3.301.256-.329.76-.849 1.06-1.09a6.622 6.622 0 0 1 1.746-1c1.28-.472 3.016-.553 4.122-.192 1.504.492 2.298 1.752 2.472 3.922l.016.209.12-.108.991-.91c1.976-1.819 3.126-2.64 4.09-2.923.187-.054.3-.069.624-.081 1.207-.044 2.044.342 2.622 1.21.526.79.765 1.818.694 2.996-.02.337-.059.566-.276 1.655a195.393 195.393 0 0 0-1.27 7.168c-.15.937-.155.972-.14 1.308.036.842.214 1.363.596 1.748.144.144.238.214.381.283.34.16.825.216 1.154.13.19-.05.587-.237.899-.427.565-.344 1.789-1.284 1.81-1.39.006-.031.046-.336.09-.677a80.22 80.22 0 0 1 .33-2.116c.264-1.585.4-2.526.48-3.332.064-.653.112-1.461.096-1.655-.035-.444-.323-.68-.684-.563-.252.082-.779.405-1.51.926-.303.215-.37.253-.397.224a80.366 80.366 0 0 1-1.379-1.59c.002-.008.067-.07.146-.14.22-.19 1.331-1.226 2.665-2.484 1.63-1.538 2.117-1.97 2.794-2.48.514-.385.912-.619 1.25-.73.148-.05.225-.058.504-.057.199.002.4.018.507.042.703.156 1.254.555 1.71 1.238.47.704.758 1.45.891 2.314.073.47.08 1.388.014 1.768-.024.136-.044.261-.044.278s.077-.083.171-.222c.652-.96 1.568-1.914 2.587-2.694.286-.218.943-.654 1.233-.819a10.12 10.12 0 0 1 4.65-1.33c1.487-.046 2.605.312 3.37 1.08.287.29.523.628.697.997.343.717.505 1.492.54 2.584l.017.525.443-.39c.285-.25.543-.506.723-.715a21.167 21.167 0 0 1 1.418-1.46c1.623-1.484 3.338-2.329 5.207-2.565a9.283 9.283 0 0 1 1.597-.04c1.104.106 1.954.47 2.547 1.096.913.962 1.293 2.248 1.202 4.072-.065 1.308-.266 2.528-.814 4.945-.688 3.037-.789 3.676-.708 4.504.064.656.201.941.538 1.121.248.132.464.18.896.195.364.013.388.01.582-.054a4.42 4.42 0 0 0 .895-.46c.19-.121.232-.159.223-.2-.04-.169-.071-1.06-.058-1.61.044-1.775.427-3.311 1.234-4.953.55-1.12 1.207-2.12 2.08-3.168 2.552-3.06 5.596-4.95 9.017-5.598 1.398-.265 3.043-.333 4.257-.177 2.304.296 3.745 1.293 4.386 3.033a5.91 5.91 0 0 1 .345 1.882 4.792 4.792 0 0 1-.27 1.86c-.501 1.521-1.638 3.034-3.482 4.634-2.166 1.879-4.836 3.19-7.87 3.864-.416.092-1.186.245-1.235.245-.03 0 .257.331.435.503.574.551 1.283.868 2.168.969.339.038 1.572.016 2.154-.039 2.432-.23 4.817-.882 7.619-2.084l.57-.244-.015-.142a13.787 13.787 0 0 1-.003-2.523c.199-1.941.866-3.766 2.008-5.498.46-.7.873-1.23 1.528-1.964 1.402-1.571 2.732-2.62 4.369-3.448 1.866-.942 3.834-1.414 6.094-1.46.962-.02 1.615.031 2.381.186a7.252 7.252 0 0 1 2.91 1.28c.502.377 1.126 1.041 1.588 1.694 1.114 1.57 1.665 3.635 1.601 5.992-.059 2.15-.489 4.068-1.321 5.893-.744 1.633-1.966 3.319-3.328 4.592-2.103 1.967-4.506 3.054-7.405 3.35-.374.04-1.839.07-2.19.047zm1.799-5.079c1.526-.185 2.874-1.243 4.025-3.16 1.179-1.964 1.762-4.058 1.707-6.124-.023-.838-.127-1.462-.359-2.157-.211-.633-.427-1.016-.716-1.275-.307-.274-.586-.347-1.171-.305a4.78 4.78 0 0 0-1.813.48c-1.076.526-1.966 1.416-2.8 2.795-1.079 1.788-1.648 3.585-1.775 5.606-.068 1.082.097 1.98.52 2.825.295.59.678 1.01 1.094 1.195.311.14.772.182 1.288.12zm-23.554-4.448c2.348-.938 4.47-2.6 5.724-4.48.39-.586.637-1.142.715-1.61a2.782 2.782 0 0 0-.038-.881 1.466 1.466 0 0 0-.267-.548 1.19 1.19 0 0 0-.487-.3c-.19-.064-.723-.076-.97-.024-1.047.222-2.079 1.023-3.117 2.424-1.127 1.521-1.744 2.956-1.886 4.393-.037.37-.035 1.143.003 1.143.016 0 .162-.052.323-.117zM31.691 7.555c-.582-.052-1.173-.217-1.554-.434-.21-.12-.536-.41-.678-.603-.205-.28-.354-.66-.43-1.1-.06-.342-.053-.993.013-1.317.135-.662.494-1.286 1.107-1.92 1.142-1.183 2.494-1.865 3.968-2 .907-.084 1.562.066 2.116.483.524.395 1 1.074 1.185 1.69.09.301.111.82.05 1.188-.145.852-.62 1.66-1.453 2.472-.885.862-1.83 1.34-2.97 1.504a7.937 7.937 0 0 1-1.354.037z" fill="#000"/></g></svg>