<?xml version="1.0" encoding="utf-8"?>
<!-- Generator: Adobe Illustrator 26.3.1, SVG Export Plug-In . SVG Version: 6.00 Build 0)  -->
<svg version="1.1" id="Livello_1" xmlns="http://www.w3.org/2000/svg" xmlns:xlink="http://www.w3.org/1999/xlink" x="0px" y="0px"
	 viewBox="0 0 200 200" style="enable-background:new 0 0 200 200;" xml:space="preserve">
<path d="M157.2,76.1c-0.9,0.7-16.2,9.3-16.2,28.6c0,22.3,19.5,30.1,20.1,30.3c-0.1,0.5-3.1,10.8-10.3,21.3
	c-6.4,9.2-13.1,18.5-23.3,18.5s-12.8-5.9-24.6-5.9c-11.5,0-15.6,6.1-24.9,6.1s-15.8-8.6-23.3-19.1c-8.7-12.3-15.7-31.5-15.7-49.7
	c0-29.2,19-44.6,37.6-44.6c9.9,0,18.2,6.5,24.4,6.5c5.9,0,15.2-6.9,26.4-6.9C131.7,61.3,147.1,61.6,157.2,76.1z M122.1,48.9
	c4.7-5.5,8-13.2,8-20.9c0-1.1-0.1-2.1-0.3-3c-7.6,0.3-16.6,5.1-22.1,11.4c-4.3,4.9-8.3,12.5-8.3,20.3c0,1.2,0.2,2.3,0.3,2.7
	c0.5,0.1,1.3,0.2,2,0.2C108.5,59.6,117.1,55,122.1,48.9z"/>
</svg>
