<svg xmlns="http://www.w3.org/2000/svg" viewBox="0 0 200 200" enable-background="new 0 0 200 200"><path fill="#000" d="M131.7 177.3l-6.2-6.4c-.2-.1-.3-.5-.1-.7l4.7-8c.1-.2.1-.4.1-.5 0-.5-.4-.9-.9-.9h-3.5c-.4 0-.7.2-.8.5l-3 5.2c-.1.2-.4.3-.7.1l-4.8-5c-.1-.1-.1-.2-.1-.3 0-.1.1-.2.2-.3l.1-.1c2.7-1.6 5.9-3.9 5.9-8.1 0-4.7-3.4-7.9-8.5-7.9-5 0-8.7 3.3-8.7 8.3 0 2.2.9 4.4 2.8 6.7v.1c.1.1.1.2.1.3 0 .1-.1.2-.2.3-4.1 2.3-6.2 5.5-6.2 9.3 0 6.5 5.4 9.8 10.7 9.8 3.7 0 6.5-1.4 9.3-4.6l.1-.1c.2-.2.5-.2.7 0l3.3 3.5.1.1c.2.2.4.3.7.3h4.4c.5 0 .9-.4.9-.9-.2-.3-.3-.5-.4-.7zm-17.6-27.6c2.1 0 3.2 1.4 3.2 3.2 0 2.1-1.8 3.2-4 4.5h-.1c-.2.1-.4.1-.5-.1l-.1-.1c-1-1.1-2.1-2.7-2.1-3.9 0-2 1.4-3.6 3.6-3.6zm4.4 21.9c-1.6 1.9-3.4 3.2-5.9 3.2-3 0-5.4-2.2-5.4-5 0-2.5 1.1-3.9 4.2-5.8.2-.1.5-.1.6 0l6.5 6.8c.1.1.2.2.2.4s-.1.3-.2.4zM97.7 174.8h-.2c-5 0-7.5-2.6-7.5-7.9v-15.4c0-.3.2-.5.5-.5h7.8c.5 0 .9-.4.9-.9v-3.4c0-.5-.4-.9-.9-.9h-7.8c-.3 0-.5-.2-.5-.5v-7.1c0-.5-.4-.9-.9-1H89l-4 .3c-.5 0-.9.4-.9.9v6.8c0 .3-.2.5-.5.5h-4.9c-.5 0-.9.4-.9.9v3.4c0 .3.1.5.3.6.2.2.4.3.7.3h4.9c.3 0 .5.2.5.5v16.4c0 8.8 6.6 11.9 12.4 11.9h1.2c.5-.1.9-.4.9-.9v-3.2c-.1-.4-.5-.8-1-.8zM75.3 177.5c-.3-.9-.4-1.9-.4-2.3v-17.8c0-8.6-6.1-11.6-11.7-11.6-4.5 0-8.6 1.2-11.2 2.9-.2.1-.4.4-.4.6 0 .2 0 .5.1.7l2.1 2.8c.3.4.9.5 1.3.2l.3-.2c2.1-1.3 4.5-2 7-2 7 0 6.8 5.5 6.8 6.2 0 .4-.2.5-.5.4h-1.1c-5.4-.2-19.2 1.7-19.2 12.6 0 6.4 5.3 9.7 10.3 9.7 4.8 0 8.7-1.9 10.7-4.3h.1c.1 0 .1.1.1.1 0 .3 0 1 .1 1.6 0 .5.1.9.2 1.2.1.3.2.5.5.6.1.1.3.1.4.1h3.9c.5 0 .9-.4.9-.9-.2-.2-.3-.6-.3-.6zm-6-12.7c-.8 5.6-3.5 8.8-8.6 9.7-3.6.6-6.8-.9-7-4.7-.2-4.2 4.7-7.8 13.7-7.4 0 0 .7 0 1.1.1.4 0 .6.2.8.4.1.2.2.7 0 1.9zM150.3 174.8h-.2c-5 0-7.5-2.6-7.5-7.9v-15.4c0-.3.2-.5.5-.5h7.8c.5 0 .9-.4.9-.9v-3.4c0-.5-.4-.9-.9-.9h-7.8c-.3 0-.5-.2-.5-.5v-7.1c0-.5-.4-.9-.9-1h-.1l-4 .3c-.5 0-.9.4-.9.9v6.8c0 .3-.2.5-.5.5h-4.9c-.5 0-.9.4-.9.9v3.4c0 .3.1.5.3.6.2.2.4.3.7.3h4.9c.3 0 .5.2.5.5v16.4c0 8.8 6.6 11.9 12.4 11.9h1.2c.5-.1.9-.4.9-.9v-3.2c0-.4-.5-.8-1-.8z"/><path fill="#848689" d="M52.4 54.6c0-2.2.3-3.8.9-5.2 1-2.1 2.1-4.1 3.4-6-.3.5-.5 1.2-.5 1.9 0 4.8 11.8 11.1 27.9 13.1 5.5.7 19.9 2.7 31.1 1.7 22.6-1.9 27.6-9.8 27.6-14.9 0-1.4-.8-3.5-1.5-4.6 1 1.4 2 2.8 2.9 4.2 1.7 3 1.5 4.2 1.5 4.7 0 10.5-19.5 17.3-32.5 20.9-33.5 9.3-60.8-3.2-60.8-15.8zm10.7-14.7c0 4.7 6.9 12.3 26.8 12.3 11.8 0 21.3-2.3 28.5-4.7 11.5-3.8 17.2-8.5 17-12 0-.5-.2-1.4-.9-2.1-2.6-2.3-5.4-4.3-8.3-6.1 2 1.1 3.1 2.5 3.1 4 0 5.2-12.7 10-29.3 10.4-16.6.4-30.4-3.7-30.7-8.9-.1-1.7 1.1-3.4 3.5-4.9-1.8 1.1-3.5 2.3-5.1 3.6-4.7 3.8-4.6 7.9-4.6 8.4zm43.2 61c-10.1.4-27.9-3.1-39.1-7.7-9-3.7-17.9-10.9-18.9-17.7.1 1.6.3 3.3.6 4.9 5.5 30.2 43.5 28.4 50.1 27.7 47.8-5.3 51.9-25.7 52.5-29.7.1-.8.2-1.7.2-2.5-.9 5.3-8.9 23.7-45.4 25zM70 107.8c-8.6-3.5-14.5-9.4-16.9-13.7 2.2 4.7 5.1 8.9 8.5 12.7 11.2 10.5 28.4 11.8 36.2 11.8 33.4 0 45.3-17.6 48-22.3.5-.9 1-1.9 1.4-2.9-5.3 10.9-32.7 32.8-77.2 14.4zm80.8-43.9c0-.8-.1-2.5-.5-4.2-.3-1.2-.6-2.3-1-3.4.6 2.1.5 3.6.5 4.2 0 2.6-3.2 18.3-34.6 21.2-2.7.2-22.7.6-40-3.8-11.4-3.1-23-8.7-25.2-16.6-.3-1.2-.2-2.3.1-3.4-.9 3.1-1.5 6.4-1.7 9.7.2 8.3 7.4 17.9 20.5 22 15 4.7 24.2 4.9 46 0 36.3-8 35.9-23.9 35.9-25.7z"/><path fill="#696A6D" d="M113.2 70.5c.9-.2 1.8-.5 2.7-.8-4-.9-8.3-1.3-12.7-1.3-8.4 0-16.2 1.7-22.8 4.6 9.4 1.3 20.7.8 32.8-2.5zm-4.3-20.4c3.5-.8 6.7-1.7 9.5-2.6 1.5-.5 3-1 4.3-1.6-4-.7-7.5-1.2-9.8-1.4-9-.8-22.5 1.7-26 2.5-1.1.2-6 1.2-12 3.3 1.4.4 3 .8 4.7 1.1 5.4-1.5 11-2.4 16.3-2.4 3.6 0 8.1.4 13 1.1zm1 31.6c-3.3 0-7.8-.2-12.8-.6-9 1-16.6 5-20.9 10.6 1.4.3 2.8.6 4.2.8 4.6-5 12.3-8.3 21-8.3 6.4 0 12.2 1.8 16.7 4.7 1.7-.4 3.4-.9 4.9-1.4-3.4-2.7-8-4.7-13.1-5.8zm29.4-22.1c2.6-1.9 4.6-4.1 5.6-6.4-1.3-.8-2.7-1.5-4.2-2.2-1.5 2-4 3.9-7.9 5.5 2.3.9 4.5 2 6.5 3.1zm-11.5 6.1c2.7-1.1 5.4-2.4 7.8-3.7-2.5-1.3-5.4-2.5-8.7-3.5-3.2.8-7.1 1.4-11.7 1.8-1.4.1-2.8.2-4.2.2 3.2.6 6.3 1.4 9.2 2.4 2.8.9 5.3 1.8 7.6 2.8zm6.2 11.7c-2.3.9-5 1.8-8 2.5 2.2 1.3 4.2 2.8 5.9 4.5 2.5-1.1 4.6-2.2 6.5-3.3-1.4-1.3-2.9-2.5-4.4-3.7zM66.2 53.9c-4.1 2-8 4.5-11.2 7.5.5.6 1 1.2 1.6 1.8 3.5-3.1 7.9-5.8 12.7-8.1-1-.4-2.1-.8-3.1-1.2zm12.9 24.7c-1.3-.3-2.6-.6-3.8-.9l-2.4-.6c-4.2 2.9-7.5 6.4-9.7 10.3 1.3.7 2.7 1.3 4.2 1.8 1.3-2.2 2.9-4.3 5-6.1 2-1.7 4.2-3.2 6.7-4.5zM64.6 99.9c0-2.5.4-4.9 1.3-7.3-1.4-.6-2.8-1.3-4.1-2.1-.9 2.4-1.4 4.9-1.4 7.4 0 .5 0 1 .1 1.5 1.4 1 2.8 2 4.3 2.8-.1-.7-.2-1.5-.2-2.3zm28.2-40.4c-3.7-.4-6.7-.8-8.7-1-1.3-.2-2.5-.3-3.7-.6-7 2.2-13.1 5.5-17.9 9.5 1 .5 2 1 3.1 1.5 7-5 16.5-8.5 27.2-9.4zm-14.6 51.3c-1.4-.5-2.9-1-4.3-1.5 1.2 2.5 3 4.8 5.3 6.8 1.9.5 3.8.9 5.6 1.3-2.8-1.8-5-4.1-6.6-6.6zM149.6 57c-.1-.2-.1-.4-.2-.5 0 .1.1.3.1.4.1 0 .1.1.1.1zM55.2 81.8c1.3-3.3 3.4-6.4 6.2-9.2l-2.7-1.5c-2.4 2.7-4.3 5.5-5.5 8.5.6.7 1.3 1.5 2 2.2zm86.1-8.4c1.2 1 2.3 2 3.2 3 1.3-1.2 2.3-2.4 3.1-3.5-.6-1-1.3-2.1-2.2-3.2-1.1 1.3-2.4 2.5-4.1 3.7zm-80.4 29.2c.4 1.9 1.2 3.7 2.1 5.5 1.8 1.5 3.8 2.8 5.9 4-1.5-2-2.6-4.2-3.4-6.4-1.6-1-3.2-2.1-4.6-3.1zm60.4 12.3c2.4-.8 4.7-1.8 6.7-2.8.8-1.1 1.4-2.2 1.9-3.4-1.7.8-3.5 1.6-5.4 2.3-.9 1.5-1.9 2.8-3.2 3.9zm4.6-16.9c.5 1.2.8 2.5.9 3.9 1.5-.6 2.9-1.2 4.3-1.8-.2-1.2-.5-2.4-.9-3.5-1.4.5-2.8 1-4.3 1.4zm9.3-60.9c-2.4-.8-5.2-1.4-8.4-1.9-3.7 2.8-11.2 5.1-20.4 6 5.8.6 13 1.6 19.8 3.2 5-2.5 8-5.1 9-7.3zm-65.5-2.9c-2.3 1-4.4 2-6.2 3-.3 1-.4 1.7-.4 2.2 2.3-1.2 5-2.4 8.1-3.6-.7-.5-1.2-1-1.5-1.6zM51.8 65c-1.3 1.9-2.4 3.9-3 6.1.2.7.4 1.3.6 2 .8-2.2 2.1-4.3 3.8-6.4-.5-.5-1-1.1-1.4-1.7zm1.9 24.4c0-1.5.2-2.9.5-4.4-.8-.7-1.4-1.4-2.1-2.1-.5 2.1-.6 4.2-.4 6.3.7 1.3 1.4 2.6 2.3 3.7-.1-1.1-.3-2.3-.3-3.5zm13.1-43.1c5.5-2.5 12.2-4.5 20.1-5.3-2.7-.4-5.2-.8-7.4-1.4-5.2 1.4-10.1 3.2-14.3 5.1.4.5 1 1.1 1.6 1.6zm77.9 44.6c-.3-.8-.6-1.5-1-2.3-1.7 1.5-3.7 3-6 4.4.4 1 .7 1.9.9 2.9 2.5-1.6 4.5-3.3 6.1-5zm5.6-11c-.5 1.1-1.1 2.2-1.9 3.4.2.8.4 1.5.4 2.2.8-1.5 1.4-2.8 1.8-4 0-.5-.1-1-.3-1.6zm.1-20.1c-.1-.5-.2-1-.4-1.5-.1-.2-.2-.3-.2-.5.2 1.3.2 2.2.2 2.6 0 .8-.3 3.1-1.9 5.8.7.8 1.3 1.7 1.9 2.6 1-2.6 1-4.4 1-5-.2-.7-.3-2.3-.6-4zm-74.3 43.3c0-2.3.5-4.5 1.5-6.5-1.3-.3-2.5-.7-3.8-1.1-1 2.1-1.5 4.4-1.5 6.8 0 1.1.1 2.1.3 3.2 1.3.4 2.6.7 3.8 1-.2-1-.3-2.2-.3-3.4zm62.7 0c-.1.7-.3 1.5-.5 2.2 4.2-3.8 6.5-7.3 7.6-9.1 0-.1.1-.1.1-.2v-.4c-1.7 2.4-4.1 5-7.2 7.5zm-9.6-72.5c2.1.8 4 1.9 5.6 3.2-.1-.1-.2-.3-.3-.4-1.7-1.5-3.4-2.9-5.3-4.2-.5-.3-1-.6-1.5-.8.9.7 1.4 1.4 1.5 2.2zM56.7 43.5c-.1.2-.3.4-.4.7.1-.1.2-.2.2-.3 0-.2.1-.3.2-.4zm84.9 6.2c1.4.7 2.7 1.5 3.8 2.3.2-.8.4-1.6.4-2.4 0-.5.2-1.7-1.4-4.6-.9-1.5-1.9-2.9-2.9-4.2.8 1.2 1.5 3.2 1.5 4.6-.2 1.3-.5 2.8-1.4 4.3zm-82 .5c-.6-.5-1.2-1-1.7-1.5-2.2 1.5-4.1 3.2-5.5 4.9v.9c0 .6.1 1.1.2 1.7 1.7-1.9 4-4 7-6zM53.1 94c1.2 2.6 2.6 5 4.2 7.3-.9-1.4-1.6-2.8-2.1-4.3-.9-1-1.6-2-2.1-3zm-3-36c-.3 1.2-.6 2.3-.9 3.5.1-.5.3-1 .6-1.5 0-.6.1-1.3.3-2zm-1.5 19c-.2-.5-.3-1-.3-1.5.1 1.3.2 2.5.4 3.8-.1-.8-.1-1.6-.1-2.3z"/><path fill="#fff" d="M69.3 32.8c.4 5.2 14.1 9.3 30.7 8.9 16.6-.4 29.3-5.2 29.3-10.4 0-1.5-1.1-2.8-3.1-4-7.7-4.5-16.7-7.1-26.2-7.1-10 0-19.3 2.8-27.2 7.7-2.4 1.5-3.6 3.2-3.5 4.9zm14.8 25.7c5.5.7 19.9 2.7 31.1 1.7 22.6-1.9 27.6-9.8 27.6-14.9 0-1.4-.8-3.5-1.5-4.6-2-2.7-4.3-5.1-6.8-7.3.6.7.9 1.6.9 2.1.2 3.5-5.5 8.2-17 12-7.2 2.4-16.7 4.7-28.5 4.7-19.9 0-26.8-7.6-26.8-12.3 0-.5-.1-4.5 4.5-8.4-4.2 3.4-7.9 7.4-10.9 11.9-.3.5-.5 1.2-.5 1.9 0 4.9 11.8 11.1 27.9 13.2zM67.2 93.2c11.2 4.6 29 8.1 39.1 7.7 36.5-1.3 44.5-19.7 45.4-25.1.1-1.3.1-2.5.1-3.8 0-4.2-.5-8.4-1.5-12.3.4 1.7.5 3.4.5 4.2 0 1.8.3 17.7-36 25.8-21.8 4.9-31 4.7-46 0-13.1-4.1-20.3-13.8-20.5-22-.1 1.4-.2 2.9-.2 4.3 0 1.2 0 2.3.1 3.5 1 6.8 10 14 19 17.7zm30.6 25.3c-7.9 0-25.1-1.3-36.2-11.8 9.5 10.5 23.2 17.1 38.5 17.1 19.9 0 37.1-11.2 45.8-27.6-2.8 4.7-14.7 22.3-48.1 22.3zm1.1-10.4c-6.5.7-44.5 2.4-50.1-27.7.8 4.8 2.2 9.4 4.2 13.7 2.4 4.3 8.3 10.2 16.9 13.7 44.6 18.4 72-3.5 77.3-14.4 2.1-4.7 3.6-9.7 4.2-15-.6 4-4.7 24.4-52.5 29.7zM50.1 57.9c.8-3 1.9-5.8 3.2-8.5-.6 1.4-.9 2.9-.9 5.2 0 12.6 27.3 25.1 60.8 15.9 13-3.6 32.5-10.4 32.5-20.9 0-.5.2-1.7-1.5-4.7 2.2 3.5 3.9 7.3 5.2 11.4.6 2.1.5 3.6.5 4.2 0 2.6-3.2 18.3-34.6 21.2-2.7.2-22.7.6-40-3.8-11.5-3.1-23.1-8.7-25.3-16.6-.3-1.2-.2-2.3.1-3.4z"/></svg>
