<svg xmlns="http://www.w3.org/2000/svg" viewBox="0 0 200 200" enable-background="new 0 0 200 200"><path fill="#000" d="M168.3 153.2c0-.4-.2-.6-.7-.6h-.8v2h.3v-.8h.2l.6.8h.4l-.6-.8c.3 0 .6-.2.6-.6zm-1.2.3v-.6h.3c.2 0 .5.1.5.3 0 .3-.2.3-.5.3h-.3zM167.4 152c-.9 0-1.7.8-1.7 1.7 0 1 .8 1.7 1.7 1.7 1 0 1.7-.8 1.7-1.7.1-1-.7-1.7-1.7-1.7zm0 3c-.8 0-1.3-.6-1.3-1.4 0-.8.6-1.4 1.3-1.4.8 0 1.4.6 1.4 1.4 0 .9-.6 1.4-1.4 1.4zM47 132.1c-1.7-1.7-4.1-2.5-6.8-2.5h-9.3v25.8h9.3c2.7 0 5.1-.8 6.8-2.5 2.9-2.9 2.6-6.7 2.6-10.5 0-3.9.3-7.4-2.6-10.3zm-3.6 17.2c-.9 1-2 1.6-3.8 1.6h-3.8v-16.8h3.8c1.7 0 2.9.5 3.8 1.6.9 1.2 1.1 2.8 1.1 6.7 0 3.9-.1 5.8-1.1 6.9zM54.2 129.6h5v25.8h-5zM82.8 137.5c0-4.3-3.1-7.9-8.4-7.9H64.3v25.8h5v-10.3H73l5 10.3h5.8L78 144.3c2.6-.9 4.8-3.2 4.8-6.8zm-8.7 3.4h-4.7v-6.8h4.7c2.2 0 3.7 1.4 3.7 3.4s-1.5 3.4-3.7 3.4zM87.1 155.4h17v-4.5H92.2v-6.3h10.2v-4.4H92.2v-6.1h11.9v-4.5h-17zM116.5 133.9c2.4 0 3.8 1.5 4.3 3.7h5.1c-.9-5.3-4.5-8.2-9.5-8.2-2.8 0-5.1.9-7 2.8-1.1 1.1-1.8 2.4-2.1 3.9-.3 1.4-.4 3.6-.4 6.4s.1 5 .4 6.4c.3 1.4 1 2.8 2.1 3.9 1.9 1.9 4.2 2.8 7 2.8 4.9 0 8.6-2.9 9.5-8.2h-5.1c-.5 2.2-1.9 3.7-4.3 3.7-1.4 0-2.5-.4-3.2-1.3-1-1.1-1.3-2.3-1.3-7.3s.2-6.2 1.3-7.3c.7-.9 1.8-1.3 3.2-1.3zM127.3 134.1h6.8v21.3h5v-21.3h6.7v-4.5h-18.5zM163.9 129.6l-5.2 16.8-5.2-16.8h-5.2l8.5 25.8h3.8l8.6-25.8zM162.8 44.4h-19.3c12.8 13.3 15.5 30.1 6.1 44.6-10.6 15.3-40.2 29.1-75.8 33.2h89.9c3.3 0 5.4-2.2 5.4-5V49c.1-1.7-1.1-4.6-6.3-4.6z"/><path fill="#333" d="M36 122.2h12.2c51.8-2.5 77.2-20.2 78.5-38 0-.6.1-1.3.1-1.9-.4-17.8-23.5-38.1-70-37.8H36.3c-3.3 0-5.4 2.4-5.4 5.7v66.7c0 1.9 1.6 5.3 5.1 5.3z"/></svg>
