<svg fill="none" height="82" viewBox="0 0 82 82" width="82" xmlns="http://www.w3.org/2000/svg" xmlns:xlink="http://www.w3.org/1999/xlink"><clipPath id="a"><path d="m0-.000153h82v82h-82z"/></clipPath><g clip-path="url(#a)"><path d="m41.0007-.00015259c-22.6073 0-40.9994793 18.39245259-40.9994793 41.00015259s18.3921793 40.9998 40.9994793 40.9998c22.6074 0 40.9995-18.3921 40.9995-40.9998.0001-22.6077-18.3921-41.00015259-40.9995-41.00015259zm0 76.68965259c-19.6793 0-35.68917-16.0103-35.68917-35.6895 0-19.6796 16.00997-35.68984 35.68917-35.68984 19.6789 0 35.6892 16.01034 35.6892 35.68984 0 19.6791-16.0102 35.6895-35.6892 35.6895zm13.9291-47.6485h.3236v-1.5672h.5832v-.2768h-1.4886v.2768h.5819zm1.423-1.4249h.0059l.5115 1.4249h.2635l.5113-1.4249h.0073v1.4249h.3038v-1.8439h-.4466l-.4943 1.4423h-.0086l-.5062-1.4423h-.4539v1.8439h.3064v-1.4249zm-9.3115-.4206h-20.1697l-3.0602 4.918h20.1464zm4.122.0469-12.3303 19.6337h-13.6771l3.1555-4.9221h8.1974l3.1313-4.92h-18.9509l-3.1307 4.92h4.4895l-6.229 9.8274h25.9953l9.6014-15.1421 3.5009 5.3146h-3.1567l-2.9895 4.9222h9.3478l3.2459 4.9053h5.963z" fill="#000"/></g></svg>