<svg width="83" height="22" viewBox="0 0 83 22" fill="none" xmlns="http://www.w3.org/2000/svg">
<path d="M8.46388 15.3457C9.72147 15.3704 10.9526 14.981 11.9698 14.2369V11.482H8.6111V9.01291H14.8219V15.5248C13.985 16.3526 12.992 17.0039 11.9014 17.4403C10.8107 17.8767 9.64431 18.0895 8.47073 18.0662C3.29394 18.0662 0.00708008 14.3918 0.00708008 9.82904C0.00708008 5.26627 3.29393 1.58853 8.22421 1.58853C9.34281 1.55957 10.4545 1.77379 11.4832 2.21655C12.5119 2.6593 13.4335 3.32016 14.1851 4.15399L12.1 6.22015C11.6372 5.6347 11.0473 5.16364 10.3755 4.84309C9.70366 4.52254 8.96774 4.36102 8.22421 4.37094C7.52137 4.3781 6.8269 4.52509 6.18079 4.80341C5.53469 5.08173 4.94973 5.4859 4.45961 5.99261C3.9695 6.49932 3.58392 7.09856 3.3251 7.75582C3.06628 8.41308 2.93933 9.11536 2.95156 9.82219C2.93848 10.5529 3.07228 11.2788 3.34493 11.9562C3.61758 12.6337 4.02347 13.2488 4.53825 13.7646C5.05303 14.2804 5.66608 14.6863 6.34066 14.958C7.01523 15.2297 7.7374 15.3616 8.46388 15.3457Z" fill="#000"/>
<path d="M22.563 18.0828C21.363 18.0672 20.1944 17.6949 19.2042 17.013C18.214 16.331 17.4465 15.3697 16.9981 14.2501C16.5498 13.1305 16.4407 11.9025 16.6845 10.7206C16.9284 9.53877 17.5143 8.45585 18.3686 7.60809C19.2228 6.76034 20.3073 6.18562 21.4855 5.95624C22.6638 5.72687 23.8831 5.85306 24.9902 6.31897C26.0973 6.78489 27.0426 7.5697 27.7073 8.57467C28.372 9.57965 28.7264 10.7599 28.7258 11.9669C28.7236 12.7764 28.5621 13.5775 28.2506 14.3239C27.939 15.0703 27.4837 15.7473 26.9108 16.3158C26.3379 16.8843 25.6587 17.3332 24.9125 17.6364C24.1663 17.9397 23.3678 18.0914 22.563 18.0828ZM22.563 15.4209C23.2401 15.4209 23.9021 15.2189 24.4651 14.8405C25.0282 14.4622 25.467 13.9243 25.7262 13.2951C25.9853 12.6658 26.0531 11.9735 25.921 11.3055C25.7889 10.6375 25.4628 10.0239 24.984 9.54226C24.5051 9.06067 23.8951 8.73273 23.2309 8.59985C22.5668 8.46698 21.8783 8.53515 21.2527 8.79578C20.6271 9.05642 20.0924 9.4978 19.7162 10.0641C19.34 10.6304 19.1392 11.2962 19.1392 11.9773C19.1392 12.8906 19.4999 13.7665 20.142 14.4123C20.7841 15.0581 21.6549 15.4209 22.563 15.4209Z" fill="#000"/>
<path d="M35.854 18.0828C34.654 18.0672 33.4854 17.6949 32.4952 17.013C31.505 16.331 30.7375 15.3697 30.2892 14.2501C29.8408 13.1305 29.7317 11.9025 29.9756 10.7206C30.2194 9.53877 30.8053 8.45585 31.6596 7.60809C32.5139 6.76034 33.5983 6.18562 34.7765 5.95624C35.9548 5.72687 37.1741 5.85306 38.2812 6.31897C39.3883 6.78489 40.3337 7.5697 40.9984 8.57467C41.6631 9.57965 42.0174 10.7599 42.0168 11.9669C42.0146 12.7764 41.8531 13.5775 41.5416 14.3239C41.2301 15.0703 40.7747 15.7473 40.2018 16.3158C39.6289 16.8843 38.9497 17.3332 38.2035 17.6364C37.4573 17.9397 36.6588 18.0914 35.854 18.0828ZM35.854 15.4209C36.5319 15.4243 37.1955 15.2252 37.7608 14.8489C38.3261 14.4726 38.7676 13.936 39.0293 13.3071C39.2911 12.6781 39.3614 11.9852 39.2312 11.3161C39.101 10.6469 38.7763 10.0318 38.2982 9.54844C37.82 9.06512 37.21 8.73543 36.5454 8.60116C35.8808 8.46688 35.1915 8.53406 34.5649 8.79419C33.9382 9.05431 33.4025 9.49567 33.0255 10.0623C32.6486 10.629 32.4473 11.2955 32.4473 11.9773C32.4473 12.8876 32.8057 13.7609 33.4441 14.4062C34.0824 15.0515 34.9489 15.4163 35.854 15.4209Z" fill="#000"/>
<path d="M52.5558 1.84277H55.2948V17.8521H52.5558V16.6434C52.0894 17.1182 51.5315 17.4921 50.9162 17.742C50.3009 17.9919 49.6413 18.1125 48.9779 18.0966C47.3897 18.0587 45.8793 17.3975 44.7694 16.2544C43.6594 15.1112 43.0381 13.5768 43.0381 11.979C43.0381 10.3812 43.6594 8.8468 44.7694 7.70366C45.8793 6.56053 47.3897 5.89937 48.9779 5.86147C49.6415 5.84614 50.3012 5.96744 50.9165 6.21794C51.5317 6.46843 52.0896 6.84282 52.5558 7.31811V1.84277ZM49.1319 8.52681C48.4548 8.52681 47.7928 8.72878 47.2298 9.10717C46.6667 9.48555 46.2279 10.0233 45.9688 10.6526C45.7096 11.2818 45.6418 11.9742 45.7739 12.6422C45.906 13.3102 46.2321 13.9238 46.7109 14.4054C47.1898 14.887 47.7998 15.215 48.464 15.3479C49.1281 15.4807 49.8165 15.4125 50.4422 15.1519C51.0678 14.8912 51.6025 14.4499 51.9787 13.8836C52.3549 13.3173 52.5558 12.6515 52.5558 11.9704C52.5594 11.0577 52.2026 10.1809 51.5638 9.53257C50.9251 8.88429 50.0565 8.51758 49.1491 8.51303L49.1319 8.52681Z" fill="#000"/>
<path d="M66.7813 17.8383L63.0768 11.4849H59.9372V17.8245H57.9993V1.84277H62.9535C66.7813 1.84277 68.4967 3.96404 68.4967 6.62594C68.4967 8.84706 67.3702 10.6481 65.1379 11.2645L68.9897 17.8521L66.7813 17.8383ZM59.9337 9.89391H63.0494C65.405 9.89391 66.5553 8.66111 66.5553 6.76025C66.5553 4.85938 65.405 3.62998 63.0494 3.62998H59.9337V9.89391Z" fill="#000"/>
<path d="M73.6457 11.771L69.5747 6.12012H71.7591L74.7515 10.2524L77.744 6.12012H79.9249L75.854 11.7952L80.2433 17.8387H78.0384L74.7378 13.3L71.475 17.8387H69.2598L73.6457 11.771Z" fill="#000"/>
</svg>
