<svg width="83" height="22" fill="none" xmlns="http://www.w3.org/2000/svg"><path d="M8.464 15.346a5.746 5.746 0 0 0 3.506-1.11v-2.754H8.61v-2.47h6.21v6.513a8.805 8.805 0 0 1-2.92 1.915 8.766 8.766 0 0 1-3.43.626c-5.177 0-8.464-3.674-8.464-8.237 0-4.563 3.287-8.24 8.217-8.24a7.736 7.736 0 0 1 3.26.628 7.778 7.778 0 0 1 2.701 1.937L12.1 6.22a4.875 4.875 0 0 0-1.724-1.377 4.845 4.845 0 0 0-2.152-.472A5.301 5.301 0 0 0 4.46 5.993a5.362 5.362 0 0 0-1.508 3.83 5.455 5.455 0 0 0 1.586 3.942 5.394 5.394 0 0 0 3.926 1.58ZM22.563 18.083a6.06 6.06 0 0 1-3.359-1.07 6.114 6.114 0 0 1-2.206-2.763 6.153 6.153 0 0 1-.314-3.53 6.13 6.13 0 0 1 1.685-3.112 6.052 6.052 0 0 1 6.622-1.29 6.092 6.092 0 0 1 2.716 2.257 6.144 6.144 0 0 1 1.019 3.392 6.164 6.164 0 0 1-1.815 4.349 6.094 6.094 0 0 1-4.348 1.767Zm0-2.662a3.41 3.41 0 0 0 1.902-.58 3.44 3.44 0 0 0 1.261-1.546 3.462 3.462 0 0 0-.742-3.753 3.406 3.406 0 0 0-3.731-.746c-.626.26-1.16.702-1.537 1.268a3.458 3.458 0 0 0 .426 4.348 3.414 3.414 0 0 0 2.421 1.009ZM35.854 18.083a6.06 6.06 0 0 1-3.359-1.07 6.113 6.113 0 0 1-2.206-2.763 6.151 6.151 0 0 1 1.37-6.642 6.052 6.052 0 0 1 6.622-1.29 6.092 6.092 0 0 1 2.717 2.257 6.144 6.144 0 0 1 1.019 3.392 6.164 6.164 0 0 1-1.815 4.349 6.094 6.094 0 0 1-4.348 1.767Zm0-2.662a3.41 3.41 0 0 0 1.907-.572 3.439 3.439 0 0 0 1.268-1.542 3.462 3.462 0 0 0-.73-3.759 3.405 3.405 0 0 0-3.733-.754 3.428 3.428 0 0 0-1.54 1.268 3.459 3.459 0 0 0 .418 4.344 3.414 3.414 0 0 0 2.41 1.015ZM52.556 1.843h2.739v16.01h-2.74v-1.21a4.864 4.864 0 0 1-3.577 1.454 6.068 6.068 0 0 1-4.209-1.843 6.138 6.138 0 0 1-1.73-4.275c0-1.598.62-3.132 1.73-4.275a6.068 6.068 0 0 1 4.209-1.843 4.844 4.844 0 0 1 3.578 1.457V1.843Zm-3.424 6.684a3.41 3.41 0 0 0-1.902.58 3.438 3.438 0 0 0-1.261 1.546 3.462 3.462 0 0 0 .742 3.752 3.407 3.407 0 0 0 3.731.746 3.428 3.428 0 0 0 1.537-1.267 3.458 3.458 0 0 0 .577-1.914 3.454 3.454 0 0 0-.992-2.437 3.414 3.414 0 0 0-2.415-1.02l-.017.014ZM66.781 17.838l-3.704-6.353h-3.14v6.34H58V1.843h4.954c3.828 0 5.544 2.121 5.544 4.783 0 2.221-1.127 4.022-3.36 4.638l3.853 6.588-2.209-.014Zm-6.847-7.944h3.115c2.356 0 3.506-1.233 3.506-3.134 0-1.9-1.15-3.13-3.506-3.13h-3.115v6.264ZM73.646 11.771l-4.071-5.65h2.184l2.992 4.131 2.993-4.132h2.18l-4.07 5.675 4.39 6.044h-2.206l-3.3-4.539-3.263 4.539H69.26l4.386-6.068Z" fill="#000"/></svg>