<?xml version="1.0" encoding="utf-8"?>
<!-- Generator: Adobe Illustrator 26.3.1, SVG Export Plug-In . SVG Version: 6.00 Build 0)  -->
<svg version="1.1" id="Layer_1" xmlns="http://www.w3.org/2000/svg" xmlns:xlink="http://www.w3.org/1999/xlink" x="0px" y="0px"
	 viewBox="0 0 200 200" style="enable-background:new 0 0 200 200;" xml:space="preserve">
<style type="text/css">
	.st0{fill-rule:evenodd;clip-rule:evenodd;fill:#FFFFFF;fill-opacity:0;}
	.st1{fill-rule:evenodd;clip-rule:evenodd;}
</style>
<g>
	<path class="st0" d="M25,25h150v150H25V25z"/>
	<path class="st1" d="M42.5,110.5c-8.5,0-15.3-6.9-15.3-15.3s6.9-15.3,15.3-15.3c3.1,0,6,0.9,8.4,2.5l41.7,28.1H42.5z M46.8,76.1
		c-7.1-4.6-9.1-14.1-4.5-21.2c4.6-7.1,14.1-9.1,21.2-4.5c2.5,1.6,4.5,3.9,5.7,6.6l21.3,48.6L46.8,76.1L46.8,76.1z M157.4,110.6
		c8.5,0,15.4-6.9,15.4-15.3s-6.9-15.3-15.4-15.3c-3.1,0-6,0.9-8.4,2.5l-41.8,28.2L157.4,110.6L157.4,110.6L157.4,110.6z M153.2,76.1
		c7.1-4.6,9.1-14.1,4.5-21.2c-4.6-7.1-14.1-9.1-21.2-4.5c-2.5,1.6-4.5,3.9-5.7,6.6l-21.4,48.7L153.2,76.1L153.2,76.1z M106.1,47.3
		c-1.1,0.8-4.1,1.3-3.4,6.6l6.5,45.3l21.6-49.4c3.5-7.7,0-16.8-7.8-20.2c-7.8-3.4-16.8,0-20.3,7.8c-1.1,2.5-1.5,5.3-1.2,8l4.1,0
		C107.8,45.5,109,46.1,106.1,47.3L106.1,47.3z M69.2,49.9c-3.4-7.7,0-16.8,7.8-20.2c7.7-3.4,16.8,0,20.3,7.8
		c1.2,2.7,1.6,5.7,1.1,8.7l-7.6,53.1L69.2,49.9L69.2,49.9z M163,169.7c-2.5,1-6.2,2-9.6,2c-15.6,0-28.3-12-28.3-26.8
		c0-14.8,12.7-26.8,28.3-26.8c3.4,0,7.1,0.8,9.6,2v10.2c-2.8-1.9-6.2-2.9-9.6-2.9c-9.6,0-17.5,7.8-17.5,17.4
		c0,9.6,7.8,17.4,17.5,17.4c3.5,0,6.8-1,9.6-2.8V169.7L163,169.7z M69,119.8h10.4v51.2l-32-29.2v28.1H37v-51.2L69,148V119.8
		L69,119.8z M114.2,143.2c3.2-2.4,5.9-4.6,5.9-10.5c0-7.8-6.3-12.9-14.1-12.9H85.4V170h23.1c8.2,0,14.4-6.2,14.4-14.4
		C122.9,147.4,116.2,143.9,114.2,143.2L114.2,143.2z M95.8,127.4l7.7,0c3.6,0,6.5,2.9,6.5,6.5c0,3.6-2.9,6.5-6.5,6.5h-7.7V127.4z
		 M105.2,162.4h-9.4v-14.5l9.4,0c4,0,7.3,3.3,7.3,7.3C112.5,159.2,109.2,162.4,105.2,162.4z"/>
</g>
</svg>
