<svg xmlns="http://www.w3.org/2000/svg" viewBox="0 0 200 200"><path fill-rule="evenodd" clip-rule="evenodd" d="M30.9 123c-14.7 0-24.5-10.4-24.5-23s9.8-23.1 24.4-23.1H169c14.6 0 24.4 10.5 24.4 23.1 0 12.6-9.8 23-24.5 23h-138zm.1-40.4c-11.6 0-18.7 7.8-18.7 17.4 0 9.6 7.1 17.4 18.7 17.4h138c11.7 0 18.7-7.8 18.7-17.4 0-9.6-7.1-17.4-18.7-17.4H31zm-6 6.5h6.8l9.3 15.1V89.1h6.7v21.7h-6.7l-9.4-15.1v15.1H25V89.1zm59.3 2.2h6.5v3h3.6v2.1h-3.6v14.4h-6.5V96.4h-3.5v-2.1h3.5v-3zm-32.7 5.1h6.5v14.4h-6.5V96.4zm0-7.3h6.5v4.4h-6.5v-4.4zm116.9 14.4v3.1c0 2.3-1.4 3.3-2.7 3.3-1.3 0-2.7-1-2.7-3.3v-6.1c0-2.3 1.4-3.2 2.7-3.2 1.3 0 2.7.9 2.7 3.2v3zm-2.6-8.1c-5.3 0-9.5 3.6-9.5 8.1s4.3 8.1 9.5 8.1c5.3 0 9.5-3.6 9.5-8.1s-4.2-8.1-9.5-8.1zm-18.1-6.3h6.4v21.7h-6.4v-.8c-2.5 1.6-5.3 1.6-7.5.5-.6-.3-4.5-2.1-4.5-7.2 0-3.8 3.6-8 8.3-7.6 1.5.1 2.6.7 3.7 1.3v-7.9zm0 14.4v-2.6c0-2.2-1.5-2.8-2.6-2.8-1 0-2.6.6-2.6 2.8v5.2c0 2.2 1.5 2.8 2.6 2.8 1 0 2.6-.6 2.6-2.8v-2.6zm-74.4-7.8c2.4-.1 7.4 1.5 7.4 7.2v7.8h-6.5v-9.5c0-1.3-1.2-2.7-3-2.7s-3.1 1.4-3.1 2.7v9.5h-6.5V96.3h6.5v1.5c1.2-1.1 3-2 5.2-2.1zm53 0c2.4-.1 7.4 1.5 7.4 7.2v7.8h-6.5v-9.5c0-1.3-1.2-2.7-3-2.7s-3.1 1.4-3.1 2.7v9.5h-6.5V96.3h6.5v1.5c1.2-1.1 3-2 5.2-2.1zm-26 5.7c0-1.3 0-2.1.4-2.8.5-.9 1.5-1.3 2.3-1.3.9 0 1.8.4 2.3 1.3.4.7.4 1.6.4 2.8h-5.4zm5.5 4.4v.9c0 2.6-1.7 3.2-2.7 3.2-1 0-2.7-.6-2.7-3.2v-3h12.3c0-4.5-4.3-8.2-9.6-8.2s-9.6 3.6-9.6 8.1 4.3 8.1 9.6 8.1c4.4 0 8.1-2.5 9.3-5.9h-6.6zm70-11.5h-.8v-4.9h1.9c1.2 0 1.7.4 1.7 1.4 0 .9-.6 1.3-1.3 1.4l1.4 2.2h-.8l-1.3-2.1h-.9v2h.1zm.9-2.8c.6 0 1.2 0 1.2-.8 0-.6-.6-.7-1.1-.7h-1v1.5h.9zm-4.4.3c0-2.5 2-4.3 4.4-4.3 2.3 0 4.3 1.8 4.3 4.3s-2 4.3-4.3 4.3c-2.4 0-4.4-1.8-4.4-4.3zm4.4 3.6c1.9 0 3.5-1.5 3.5-3.6 0-2-1.5-3.6-3.5-3.6s-3.5 1.5-3.5 3.6 1.5 3.6 3.5 3.6z"/></svg>