<svg xmlns="http://www.w3.org/2000/svg" viewBox="0 0 200 200" enable-background="new 0 0 200 200"><path fill="#000" d="M112.5 118.7v5.4c1.8-.1 3.5-.9 3.5-3 .1-1.9-1.8-2.4-3.5-2.4zm4.2 10.5c-.7-1-1.3-2-1.6-2.5-.9-1.7-.8-1.6-2.6-1.9v1.9c0 2.6-.1 3.5 3 3.7v.5h-8v-.5c2.3-.4 2.5-.2 2.5-3.7v-5.1c0-2.6-.1-2.9-2.5-3.1v-.5h5.9c2.3 0 5.5 0 5.5 3 0 1.5-1.1 2.6-2.5 3.1l2 3.7c1.5 2.5 4.2 4.3 7.4 4.4h.9c-1.2.4-2.5.6-3.9.4-2.5-.2-4.7-1.5-6.1-3.4zM26.6 118.4c1.8.4 2.7.2 2.8 2.3l.1 4.6c.1 2.4-.4 4.6-3.5 4.6-1.3 0-2.9-.5-3.6-1.6-.6-1-.6-2.5-.6-3.6V122c0-2.6-.1-3.5 2.5-3.7v-.5h-7.5v.5c2.3.4 2.5.2 2.5 3.7v3c0 1.6-.2 3.4 1.1 4.6 1.1 1 2.9 1.4 4.4 1.4 1.6 0 3.3-.4 4.4-1.6 1.1-1.1 1.1-2.9 1.2-4.4l.1-2.9c.2-3.2.2-3.5 2-3.9h.8l.1-.5h-6.8v.7zM39.3 127.6c0 2.6-1 2.5-2.3 2.8v.5h6.2v-.5c-2.2-.5-2.7-.6-2.7-3-.1-2.1-.2-4.1-.1-6.2 3.1 3.4 10.4 11.8 10.4 11.8v-10.4c0-3.1.1-3.9 1.8-4.1v-.5h-5.8v.5c2.2.3 2.8.6 2.9 2.9l.1 6.1c-2.7-3.2-6.1-6.4-8.5-9.5h-4.4v.5c2.4.4 2.5 1.8 2.5 3.8v5.3h-.1zM63.7 122.1c0-3.4.2-3.3 2.5-3.7v-.5h-7.5v.5c2.3.4 2.5.2 2.5 3.7v4.5c0 3.4-.2 3.3-2.5 3.7v.5h7.5v-.5c-2.3-.4-2.5-.2-2.5-3.7v-4.5zM78.2 132.9l4.1-10c1.3-3.1 1.8-4.3 3.5-4.5v-.5h-6v.5c2.4.4 3 .3 1 5.5l-1.7 4.1-2.6-6.3c-1.2-2.8-1.1-2.8 1.1-3.3v-.5h-6.8v.5c1.5.5 1.5.4 2.5 2.5l4.9 12zM96.4 124.7c1.7 0 2.6 0 2.9 1.8h.5c-.1-1.6 0-3.2.1-4.8h-.5c-.5 1.7-1.3 1.9-3 1.9h-1.6v-4.9h1.4c2.1 0 3.8 0 3.9 2.5h.6l.4-3.3H89.8v.5c2.3.4 2.5.2 2.5 3.7v4.5c0 3.4-.2 3.3-2.5 3.7v.5h11.5c.5-1.4.7-2.9.7-4.4h-.6c-.5 2.2-1.6 3.6-4.1 3.6-2.5 0-2.6-.9-2.6-2.8v-2.5h1.7zM145.8 122.1c0-3.4.2-3.3 2.5-3.7v-.5h-7.5v.5c2.3.4 2.5.2 2.5 3.7v4.5c0 3.4-.2 3.3-2.5 3.7v.5h7.5v-.5c-2.3-.4-2.5-.2-2.5-3.7v-4.5zM153.9 121.7c.8-2.7 2.2-3 4.8-3v7.9c0 3.4-.2 3.3-2.9 3.7v.5h8.2v-.5c-2.6-.4-2.9-.2-2.9-3.7v-7.9c2.6 0 4 .3 4.8 3l.5-.1-.4-3.7h-12.3l-.4 3.7.6.1zM177.6 125.3l.3-.7 2.2-4c.8-1.4 1.6-1.8 3.2-2.2v-.5h-5.5v.5c1.7.4 2 .6.4 3.9l-1 2.1-1.7-3.5c-1.1-2.3-.5-2.2.9-2.5v-.5h-6.6v.5c2.1.4 2.4 1.3 3.2 3l2.1 4.3v.9c0 3.4-.2 3.3-2.8 3.7v.5h8v-.5c-2.9-.2-2.8-1.1-2.8-3.7v-1.3h.1zM130.4 131.2c2.4 0 5-1.1 5-3.9 0-4-6.3-3.8-6.3-6.9 0-1.1.8-2 1.9-2 2 0 2.4 1.7 2.8 3.3h.6l.2-3.3c-1-.6-2.1-.9-3.2-.9-2.3 0-4.7 1.4-4.7 3.9 0 3.8 6.3 3.5 6.3 6.7 0 1.2-.9 2.1-2.2 2.1-2.2 0-3.6-2.1-4.3-4l-.6.1.7 3.6c1 .9 2.4 1.2 3.8 1.3z"/><path fill-rule="evenodd" clip-rule="evenodd" fill="#222" d="M164.6 69.4c-9.2 0-12.9 9-12.9 16.3 0 8.3 4.4 18.9 14.1 18.9 8.9 0 12.8-9 12.8-16.7-.3-9.5-5.8-18.5-14-18.5zm.4-2.3c14.5 0 20.8 9.9 20.8 19.9 0 12.2-8.8 19.9-20.7 19.9-12 0-20.7-7.8-20.7-20-.1-12 8.8-19.8 20.6-19.8zM34.4 69.4c-9.2 0-12.9 9-12.9 16.3 0 8.3 4.4 18.9 14.1 18.9 8.9 0 12.8-9 12.8-16.7-.2-9.5-5.7-18.5-14-18.5zm.5-2.3c14.5 0 20.8 9.9 20.8 19.9 0 12.2-8.8 19.9-20.7 19.9-12 0-20.7-7.8-20.7-20-.1-12 8.7-19.8 20.6-19.8z"/><path fill="#222" d="M130.2 77c.2-5.8.2-7.6 7-8.5v-.9h-19.1v.9c6.8.9 6.9 2.6 7 8.5v20c-.2 5.9-.2 7.6-7 8.5v.9h19.1v-.9c-6.8-.9-6.9-2.6-7-8.5V77zM74.9 77v6.3h22.6V77c-.2-5.8-.2-7.6-7-8.5v-.9h19.1v.9c-6.8.9-6.9 2.6-7 8.5v20c.2 5.9.2 7.6 7 8.5v.9H90.5v-.9c6.8-.9 6.9-2.6 7-8.5V86.8H74.9V97c.2 5.9.2 7.6 7 8.5v.9h-19v-.9c6.8-.9 6.9-2.6 7-8.5V77c-.2-5.8-.2-7.6-7-8.5v-.9H82v.9c-6.8 1-6.9 2.7-7.1 8.5z"/></svg>
