<svg fill="none" height="30" viewBox="0 0 132 30" width="132" xmlns="http://www.w3.org/2000/svg"><path d="m124.798 13.8883c0-4.16788 1.452-6.17487 3.213-7.25598 1.243-.77202 3.057-1.13284 3.989-1.13284v-5.49948c-1.346 0-5.072.565061-7.357 3.96224h-.103v-3.190216h-5.233v28.502276h5.491zm-24.503 11.165c-6.5795 0-9.7911-5.6615-9.7911-10.0853s3.2116-10.03495 9.7911-10.03495c5.491 0 9.895 4.01262 9.895 10.03495 0 6.0223-4.404 10.0853-9.895 10.0853zm9.732-20.37759h-.094c-2.074-3.08128-5.649-4.67571-9.638-4.67571-10.3093 0-15.2302 7.97622-15.2302 14.9231 0 6.9468 4.9196 15.0769 15.2302 15.0769 3.989 0 7.564-1.5944 9.636-4.6825h.103v3.9568h5.491v-28.502276h-5.491zm-40.7105 20.38439c-5.9586 0-9.7925-4.9916-9.7925-10.0853 0-5.03789 3.7818-10.03494 9.7925-10.03494 4.973 0 7.5116 3.29234 8.3395 5.30064h5.8558c-.8828-4.21953-5.8558-10.2405-14.1953-10.2405-8.9098 0-15.2316 6.99859-15.2316 14.8209 0 7.2546 5.5953 15.1791 15.2316 15.1791 8.4985 0 13.3125-5.8657 14.2981-10.2923h-6.0628c-.8224 2.007-3.2623 5.3524-8.2367 5.3524zm-53.8272 0c-5.95724 0-10.05024-4.9916-10.05024-10.0853 0-5.03789 4.04228-10.03494 10.05024-10.03494 6.0079 0 10.0502 4.99161 10.0502 9.98324 0 5.3524-4.3 10.137-10.0502 10.137zm0-25.0601c-8.90979 0-15.4893 6.99859-15.4893 14.8209 0 7.2546 5.85302 15.1791 15.4893 15.1791 9.7404 0 15.4892-8.0797 15.4892-15.0769 0-8.18321-6.7851-14.9231-15.4892-14.9231zm28.0273 11.9385c-2.3823-.7203-5.2335-1.6462-5.2335-4.01266 0-1.80139 2.074-3.03636 4.0423-3.03636 1.9684 0 3.9368 1.13285 4.2493 3.44756h5.3883c-.3646-6.12445-5.8557-8.33704-9.432-8.33704-5.9558 0-9.6335 3.81246-9.6335 8.2322 0 6.1748 5.6474 7.4629 8.8591 8.5944 2.799.9762 5.4925 1.8531 5.4925 4.3734 0 2.4182-2.0218 3.9105-4.4563 3.9105-3.0046 0-5.0717-1.9552-5.2841-5.1958h-5.4925c.1028 7.821 6.7357 10.0853 10.5697 10.0853 6.319 0 10.0502-3.9622 10.0502-9.1091 0-6.6895-6.5795-8.1818-9.1181-8.9538" fill="#000"/></svg>