<?xml version="1.0" encoding="utf-8"?>
<!-- Generator: Adobe Illustrator 26.3.1, SVG Export Plug-In . SVG Version: 6.00 Build 0)  -->
<svg version="1.1" id="Layer_1" xmlns="http://www.w3.org/2000/svg" xmlns:xlink="http://www.w3.org/1999/xlink" x="0px" y="0px"
	 viewBox="0 0 200 200" style="enable-background:new 0 0 200 200;" xml:space="preserve">
<style type="text/css">
	.st0{fill:#FFFFFF;}
</style>
<g>
	<g>
		<path d="M100,25c42.3,0,75.8,34.8,75,76.4c-0.7,40.7-34.4,74.3-76.4,73.6c-40.1-0.7-74.2-33.6-73.6-76.2C25.6,58,58.8,25,100,25z"
			/>
		<path d="M147.8,92.7c3.2-0.2,5.9-2.3,6.8-5.2c0.9-3-0.3-6.3-3.1-7.9c-3.5-1.9-7.1-3.8-10.8-5.4c-14.8-6.2-30.4-8.7-46.3-9.4
			c-6.6-0.3-13.2,0-19.7,0.6c-7.2,0.7-14.4,1.9-21.4,4c-3.8,1.2-5.9,5-4.8,8.7c1.1,3.8,4.9,5.8,8.7,4.7c9.1-2.7,18.4-3.8,27.8-4.1
			c9.6-0.3,19.2,0.4,28.6,2.1c10.8,2,21.2,5.1,30.7,10.7C145.5,92.1,146.7,92.3,147.8,92.7z"/>
		<path d="M87.5,90.7c-1.9,0-3.7-0.1-5.6,0c-8.3,0.4-16.4,1.6-24.3,4c-3.3,1-5.1,4.1-4.1,7.3c0.9,3.2,4.1,4.8,7.5,3.9
			c2.8-0.8,5.6-1.5,8.4-2c11-2.1,22.1-2.1,33.2-0.5c11.6,1.7,22.7,5.2,32.8,11.3c2.9,1.7,6.4,0.8,8.1-2c1.6-2.7,0.7-6.3-2.1-7.9
			c-2.8-1.6-5.5-3.2-8.4-4.5C118.6,93.5,103.3,90.6,87.5,90.7z"/>
		<path d="M87.9,115c-9,0-18.4,1.3-27.7,3.4c-1.6,0.4-2.8,1.3-3.4,2.8c-0.7,1.7-0.5,3.3,0.7,4.7c1.3,1.6,3.1,2,5,1.5
			c9.5-2.2,19-3.3,28.7-3c5.6,0.2,11.2,0.8,16.7,2.1c7,1.7,13.6,4.3,19.8,8c2.5,1.5,5.2,0.9,6.6-1.4c1.4-2.3,0.7-5.1-1.8-6.5
			c-2.1-1.2-4.2-2.4-6.3-3.4C114.3,117.4,101.6,115,87.9,115z"/>
	</g>
	<g>
		<path class="st0" d="M154.6,87.4c0.9-3-0.3-6.3-3.1-7.9c-3.5-1.9-7.1-3.8-10.8-5.4c-14.8-6.2-30.4-8.7-46.3-9.4
			c-6.6-0.3-13.2,0-19.7,0.6c-7.2,0.7-14.4,1.9-21.4,4c-3.8,1.2-5.9,5-4.8,8.7c1.1,3.8,4.9,5.8,8.7,4.7c9.1-2.7,18.4-3.8,27.8-4.1
			c9.6-0.3,19.2,0.4,28.6,2.1c10.8,2,21.2,5.1,30.7,10.7c1,0.6,2.3,0.8,3.4,1.2C151,92.5,153.8,90.4,154.6,87.4z"/>
		<path class="st0" d="M81.9,90.7c-8.3,0.4-16.4,1.6-24.3,4c-3.3,1-5.1,4.1-4.1,7.3c0.9,3.2,4.1,4.8,7.5,3.9c2.8-0.8,5.6-1.5,8.4-2
			c11-2.1,22.1-2.1,33.2-0.5c11.6,1.7,22.7,5.2,32.8,11.3c2.9,1.7,6.4,0.8,8.1-2c1.6-2.7,0.7-6.3-2.1-7.9c-2.8-1.6-5.5-3.2-8.4-4.5
			c-14.5-6.7-29.7-9.5-45.6-9.5C85.6,90.7,83.8,90.6,81.9,90.7z"/>
		<path class="st0" d="M60.2,118.4c-1.6,0.4-2.8,1.3-3.4,2.8c-0.7,1.7-0.5,3.3,0.7,4.7c1.3,1.6,3.1,2,5,1.5c9.5-2.2,19-3.3,28.7-3
			c5.6,0.2,11.2,0.8,16.7,2.1c7,1.7,13.6,4.3,19.8,8c2.5,1.5,5.2,0.9,6.6-1.4c1.4-2.3,0.7-5.1-1.8-6.5c-2.1-1.2-4.2-2.4-6.3-3.4
			c-11.9-5.8-24.6-8.2-38.4-8.2C78.8,115,69.5,116.2,60.2,118.4z"/>
	</g>
</g>
</svg>
