<svg version="1.1" id="Layer_1" xmlns="http://www.w3.org/2000/svg" x="0" y="0" viewBox="0 0 200 200" style="enable-background:new 0 0 200 200" xml:space="preserve"><style>.st0{fill:#fff}</style><path d="M100 25c42.3 0 75.8 34.8 75 76.4-.7 40.7-34.4 74.3-76.4 73.6-40.1-.7-74.2-33.6-73.6-76.2C25.6 58 58.8 25 100 25z"/><path d="M147.8 92.7c3.2-.2 5.9-2.3 6.8-5.2.9-3-.3-6.3-3.1-7.9-3.5-1.9-7.1-3.8-10.8-5.4-14.8-6.2-30.4-8.7-46.3-9.4-6.6-.3-13.2 0-19.7.6-7.2.7-14.4 1.9-21.4 4-3.8 1.2-5.9 5-4.8 8.7 1.1 3.8 4.9 5.8 8.7 4.7 9.1-2.7 18.4-3.8 27.8-4.1 9.6-.3 19.2.4 28.6 2.1 10.8 2 21.2 5.1 30.7 10.7 1.2.6 2.4.8 3.5 1.2zM87.5 90.7c-1.9 0-3.7-.1-5.6 0-8.3.4-16.4 1.6-24.3 4-3.3 1-5.1 4.1-4.1 7.3.9 3.2 4.1 4.8 7.5 3.9 2.8-.8 5.6-1.5 8.4-2 11-2.1 22.1-2.1 33.2-.5 11.6 1.7 22.7 5.2 32.8 11.3 2.9 1.7 6.4.8 8.1-2 1.6-2.7.7-6.3-2.1-7.9-2.8-1.6-5.5-3.2-8.4-4.5-14.4-6.8-29.7-9.7-45.5-9.6zM87.9 115c-9 0-18.4 1.3-27.7 3.4-1.6.4-2.8 1.3-3.4 2.8-.7 1.7-.5 3.3.7 4.7 1.3 1.6 3.1 2 5 1.5 9.5-2.2 19-3.3 28.7-3 5.6.2 11.2.8 16.7 2.1 7 1.7 13.6 4.3 19.8 8 2.5 1.5 5.2.9 6.6-1.4 1.4-2.3.7-5.1-1.8-6.5-2.1-1.2-4.2-2.4-6.3-3.4-11.9-5.8-24.6-8.2-38.3-8.2z"/><path class="st0" d="M154.6 87.4c.9-3-.3-6.3-3.1-7.9-3.5-1.9-7.1-3.8-10.8-5.4-14.8-6.2-30.4-8.7-46.3-9.4-6.6-.3-13.2 0-19.7.6-7.2.7-14.4 1.9-21.4 4-3.8 1.2-5.9 5-4.8 8.7 1.1 3.8 4.9 5.8 8.7 4.7 9.1-2.7 18.4-3.8 27.8-4.1 9.6-.3 19.2.4 28.6 2.1 10.8 2 21.2 5.1 30.7 10.7 1 .6 2.3.8 3.4 1.2 3.3-.1 6.1-2.2 6.9-5.2zM81.9 90.7c-8.3.4-16.4 1.6-24.3 4-3.3 1-5.1 4.1-4.1 7.3.9 3.2 4.1 4.8 7.5 3.9 2.8-.8 5.6-1.5 8.4-2 11-2.1 22.1-2.1 33.2-.5 11.6 1.7 22.7 5.2 32.8 11.3 2.9 1.7 6.4.8 8.1-2 1.6-2.7.7-6.3-2.1-7.9-2.8-1.6-5.5-3.2-8.4-4.5-14.5-6.7-29.7-9.5-45.6-9.5-1.8-.1-3.6-.2-5.5-.1zM60.2 118.4c-1.6.4-2.8 1.3-3.4 2.8-.7 1.7-.5 3.3.7 4.7 1.3 1.6 3.1 2 5 1.5 9.5-2.2 19-3.3 28.7-3 5.6.2 11.2.8 16.7 2.1 7 1.7 13.6 4.3 19.8 8 2.5 1.5 5.2.9 6.6-1.4 1.4-2.3.7-5.1-1.8-6.5-2.1-1.2-4.2-2.4-6.3-3.4-11.9-5.8-24.6-8.2-38.4-8.2-9 0-18.3 1.2-27.6 3.4z"/></svg>