<svg fill="none" height="34" viewBox="0 0 118 34" width="118" xmlns="http://www.w3.org/2000/svg" xmlns:xlink="http://www.w3.org/1999/xlink"><clipPath id="a"><path d="m0 .157593h118v33.8424h-118z"/></clipPath><g clip-path="url(#a)"><path d="m103.724 33.9924c-2.335-.1539-4.1505-.8783-5.5822-2.2279-.5824-.5487-1.1975-1.378-1.5532-2.0958-.0599-.1219-.1172-.221-.1274-.221-.0094 0-.1582.0871-.3302.1942-.3793.2359-1.5235.8931-2.0094 1.154-3.1874 1.7144-6.4681 2.7276-9.7807 3.0208-1.0597.0944-2.3037.1107-3.0655.0403-1.6947-.1568-3.0716-.6409-4.1854-1.473-.2787-.2083-.9406-.8536-1.1533-1.125-.2135-.2766-.4105-.5656-.5897-.8656l-.119-.2068-.3593.3092c-1.9684 1.6951-4.0112 2.7548-6.0344 3.13-.9755.1815-2.0203.2015-2.7508.0527-1.0169-.2062-1.755-.7346-2.1749-1.5562-.4827-.9435-.5988-2.226-.368-4.0681.1379-1.1018.2566-1.6912.744-3.7053.2602-1.0713.4877-2.3146.5708-3.1163.0497-.4754.0497-1.1722.0011-1.4962-.1081-.7175-.3745-1.1319-.8492-1.3228-.1684-.0683-.5977-.0821-.8107-.0269-.8823.229-1.9053 1.3017-3.0575 3.2059-1.5895 2.6267-2.4616 5.0927-2.6982 7.6268-.0494.5299-.0421 2.0243.012 2.5088.0613.548.176 1.0949.3102 1.4825.0628.1807.1213.3509.1296.3774.0152.0472-.0065.0479-.7929.033-.8754-.0159-1.4274-.0591-2.0301-.1589-2.1818-.3608-3.4172-1.2357-3.9557-2.8027-.3248-.9443-.4144-1.9641-.3063-3.4796.0744-1.0441.2221-1.906.5433-3.1678.2968-1.1667.4402-1.9002.5349-2.7363.053-.4703.0606-1.3478.013-1.5823-.1542-.7657-.5124-1.1743-1.1478-1.3093-.1289-.0272-.2711-.036-.4645-.0283-.2345.009-.31.0228-.474.0874-.8242.3248-1.7042 1.3997-2.6289 3.2132-1.0288 2.0167-1.6672 4.1661-1.8889 6.3592-.1201 1.187-.119 2.8778.0022 3.9912.0649.597.1992 1.2419.3295 1.5812.0181.0472 0 .0475-.6888.0319-1.0307-.0228-1.7035-.1041-2.4558-.2954-1.1145-.283-2.0127-.786-2.6311-1.4723-.4202-.4663-.7827-1.1591-.9932-1.898-.0224-.0845-.0483-.168-.0777-.2504-.0051-.0054-.1147.086-.2439.204-1.8519 1.6882-3.5318 2.7479-5.3151 3.3525-.9856.3342-2.0638.52-3.0175.52-1.4059 0-2.4141-.487-3.0702-1.4821-.2613-.3963-.4065-.7316-.5382-1.2433-.254-.9853-.208-2.1883.1557-4.0525.2388-1.2238.4826-2.2112 1.0484-4.2439.4065-1.4614.6852-2.4877.8554-3.1547.1339-.5251.1422-.5741.1401-.8488-.0073-.8986-.3706-1.4205-.9955-1.4292-.1753-.0021-.2058.0058-.3945.1027-.2794.1434-.5008.2867-1.0426.674l-.4616.3302-.0679.2054c-.3767 1.1384-1.2034 2.7947-2.1574 4.3222-1.051 1.6828-2.6565 3.8849-4.0348 5.5372-2.6986 3.2328-5.0143 4.9878-7.0567 5.3471-.3814.0675-.949.0635-1.2357-.0084-1.2658-.3157-2.31682-1.596-3.22807-3.9324-.07694-.1978-.46089-1.5808-1.19033-4.2954-.38901-1.4535-.78167-2.9061-1.17799-4.3577-.36726-1.2793-.84993-2.4526-1.27126-3.0884-.32371-.4892-.72944-.8074-1.07311-.8419-.13936-.0142-.16186-.0073-.37815.1005-.22609.114-.87823.5335-1.43711.9243-.15605.1093-.29758.2062-.31391.216-.0196.0109-.2417-.2584-.618393-.7494-.206194-.2704-.413779-.5397-.6227464-.8079-.03084703-.0359.0170565-.0871.4155274-.4434.901312-.8093 1.798552-1.623 2.691672-2.4413 1.22299-1.1239 1.93211-1.7009 2.75046-2.238.8746-.5745 1.4284-.7933 2.07764-.8217 1.6338-.0722 2.71887.9077 3.30677 2.9857.1405.4964.204.8278.4185 2.1774.5588 3.5209.7954 4.7904 1.1642 6.2565.4387 1.7441.9265 2.7617 1.4458 3.0176.1397.0689.1825.078.3084.0689.5683-.0435 1.3805-.9305 2.4947-2.7243.9181-1.4792 1.4744-2.6699 1.6719-3.5815.0493-.2276.0577-.3412.0588-.8093.0007-.4529-.0073-.5727-.045-.7095-.13-.4634-.3728-.773-.752-.9595-.3066-.151-.5128-.1898-1.0009-.1898-.5716 0-1.0731.0943-1.6443.3099-.1604.0606-.2588.086-.2631.0682-.004-.0152.0555-.2123.1317-.4373.4587-1.3511.9969-2.3948 1.7017-3.301.2555-.3284.7606-.8481 1.0593-1.0898.4986-.4035 1.1631-.7835 1.7467-.9994 1.2788-.4725 3.0157-.5534 4.1218-.192 1.5039.4914 2.2983 1.7518 2.4714 3.9212l.0167.209.1191-.1074c.0653-.0595.5117-.4692.9918-.9109 1.976-1.8181 3.1257-2.6394 4.0907-2.9221.1865-.0544.3001-.0689.6231-.0813 1.2074-.0443 2.0442.3419 2.622 1.2096.5262.7911.7646 1.8185.6938 2.9961-.0199.3375-.0584.5662-.2761 1.6552-.404 2.0214-.8169 4.3538-1.2702 7.1682-.1502.9366-.1542.9725-.1397 1.3079.0363.8419.2141 1.363.5966 1.7477.1437.1445.2381.2149.381.2831.339.1611.8246.2166 1.1541.1306.1905-.0497.5864-.2373.8985-.4275.5651-.3436 1.7888-1.2836 1.8095-1.3899.0062-.0312.0468-.3357.0907-.6768.0436-.3411.192-1.2934.3292-2.1158.2642-1.5855.3999-2.5258.4801-3.3322.065-.6528.1125-1.4614.0969-1.6555-.0356-.4439-.323-.6798-.6845-.5622-.2514.082-.7787.4047-1.5104.9254-.3023.2152-.3694.2533-.3963.2243-.1498-.1589-1.3805-1.5768-1.379-1.5892.0015-.0087.0671-.0718.1459-.1404.2195-.1905 1.3311-1.2266 2.6648-2.4848 1.6305-1.538 2.1172-1.9699 2.7944-2.4794.5135-.3857.9116-.6191 1.2495-.7309.148-.049.2257-.0577.5044-.0559.1985.0011.3999.0175.5066.0414.703.1564 1.2542.5556 1.7104 1.2382.4703.7041.7577 1.4499.8913 2.3136.0726.4699.0795 1.3884.0131 1.7688-.0236.1357-.0436.2605-.0436.2772s.0773-.0827.1713-.2213c.6521-.961 1.5674-1.9144 2.5872-2.6939.2856-.2185.9421-.6547 1.2324-.8194 1.4469-.8202 3.052-1.2793 4.6495-1.3297 1.4879-.0468 2.6057.3114 3.37 1.0804.2877.2899.5236.6269.6975.9965.3436.7167.5055 1.4915.5403 2.5839l.0164.5247.4438-.3901c.2849-.2504.5429-.5059.7222-.7145.3447-.4018 1.015-1.0917 1.4186-1.4604 1.6229-1.4835 3.338-2.3284 5.2073-2.565.45-.057 1.2136-.0758 1.5961-.0395 1.1047.1052 1.9542.4703 2.5472 1.0959.9134.9621 1.293 2.2482 1.2023 4.0718-.0653 1.3079-.2656 2.5277-.8136 4.9446-.6881 3.0368-.789 3.6762-.708 4.5044.0638.6561.2006.941.5378 1.1214.2482.1313.4641.1789.8953.1945.3643.0131.3883.0109.5828-.0544.2384-.0799.5669-.2483.8942-.4588.1898-.1219.2323-.1596.2232-.2014-.0399-.168-.0711-1.0596-.0574-1.6091.0436-1.7757.4265-3.3115 1.2332-4.9537.5502-1.1199 1.207-2.1204 2.0802-3.1674 2.5523-3.0593 5.596-4.9493 9.0175-5.5982 1.3979-.2649 3.0429-.3331 4.2568-.1771 2.3038.2965 3.7445 1.2927 4.3861 3.0332.2094.5676.3252 1.1983.3448 1.882.021.7186-.0458 1.1787-.2704 1.8606-.5008 1.5206-1.6374 3.0332-3.4817 4.6333-2.1655 1.8787-4.8354 3.1899-7.8707 3.8635-.4155.0921-1.1849.2453-1.2342.2453-.0305 0 .2569.3313.4354.503.5734.5516 1.2825.868 2.1673.9689.339.0378 1.5728.016 2.1539-.0384 2.4329-.2305 4.8172-.8826 7.6192-2.0839l.5704-.2446-.0148-.1415c-.0781-.7374-.0799-1.7873-.0037-2.5236.1993-1.9408.8659-3.7655 2.008-5.4981.4609-.7.8731-1.2295 1.5285-1.964 1.4019-1.571 2.7319-2.6202 4.3689-3.4476 1.866-.9421 3.834-1.4139 6.094-1.46.962-.0199 1.615.0312 2.381.1862 1.081.2188 2.077.6569 2.91 1.2803.502.3764 1.126 1.0408 1.588 1.693 1.114 1.5714 1.665 3.6356 1.601 5.9923-.059 2.1498-.489 4.0685-1.321 5.8928-.744 1.6331-1.966 3.3192-3.328 4.5923-2.103 1.9669-4.506 3.0538-7.405 3.3503-.374.0392-1.839.07-2.19.0472zm1.799-5.0793c1.526-.185 2.874-1.2433 4.025-3.1609 1.179-1.9633 1.762-4.0572 1.707-6.1229-.023-.8383-.127-1.4625-.359-2.1575-.211-.6332-.427-1.0161-.716-1.2749-.307-.274-.586-.3469-1.171-.3048-.663.0472-1.247.2014-1.813.479-1.076.5266-1.966 1.4165-2.8 2.7962-1.079 1.7881-1.648 3.5844-1.775 5.6058-.068 1.0815.097 1.98.52 2.8252.295.5905.678 1.01 1.094 1.1951.311.1393.772.1818 1.288.1197zm-23.554-4.4477c2.348-.9385 4.4702-2.5999 5.7241-4.4808.3904-.5861.6372-1.1417.7149-1.6102.0374-.2221.0189-.6424-.0381-.8804-.045-.1898-.1608-.4272-.2668-.5477-.1056-.1197-.2979-.2391-.4873-.3012-.1895-.0628-.7229-.0755-.9694-.0232-1.0477.2217-2.0794 1.0234-3.1173 2.4242-1.1276 1.5209-1.7438 2.9559-1.886 4.3926-.0371.3702-.0349 1.1435.0032 1.1435.016.0004.1612-.0526.3227-.1168zm-50.2785-16.91033c-.5817-.05226-1.1721-.21739-1.5532-.43404-.2105-.11976-.536-.40972-.6786-.60315-.2043-.27907-.3542-.66049-.4301-1.10033-.0595-.34186-.0529-.99218.0135-1.31662.135-.6623.4942-1.28578 1.1065-1.91977 1.142-1.183074 2.4946-1.865336 3.9687-2.001063.9062-.0834684 1.5612.066412 2.1157.484116.5244.394837 1.0006 1.074197 1.1846 1.689327.0903.30157.1117.82089.0497 1.18851-.1445.85211-.6195 1.6603-1.4527 2.47212-.8844.86154-1.8291 1.33948-2.9704 1.50352-.3339.0479-1.0234.06677-1.3537.03738z" fill="#000"/></g></svg>