<svg xmlns="http://www.w3.org/2000/svg" viewBox="0 0 200 200" enable-background="new 0 0 200 200"><path fill-rule="evenodd" clip-rule="evenodd" fill="#000" d="M144 75c1.5-8.2-4-14.6-10.3-19.3-8.9-6.5-18.9-10.4-29.3-13.5v108.1c4.6-4 9.2-8.5 13.6-13.1 9.4-10.3 18.1-20.9 21.7-33.6 1.5-5.8.7-12.3-4.2-16.2 4.1-3.2 7.9-7.3 8.5-12.4zm-17.9 37.4c-3.2 5.9-7.6 11.2-12.8 16.2l-.1-30.9c3.5-2.5 7.1-4.8 11.5-5.2 1.8 0 3.3.6 4.5 2 3.9 6.1-.7 12.6-3.1 17.9zm8.9-39.8c-.9 4.9-6.2 7.7-10.1 9.8-3.8 2-7.7 3.5-11.7 5V55.7c6.1 1.9 11.7 5 17 8.7 2.4 2 5.8 4.6 4.8 8.2zM96.3 149.6V41.9l-8.7 4.5v57.8c-.4 1.7.8 4.2-1.1 5-.5.1-.9-.1-1.1-.5-3.7-14-5.3-28.7-6-43.8l-.3-13.2-8.1 6.1v3.5c.5 14 1.5 27.6 4.1 40.7l-3.3 3.7c-1.3-1.8-2-3.6-2.9-5.5-4.2-11.1-5.8-23.3-6.3-35.9l-7.2 5.4c.7 19.1 4.3 37.2 15.9 51.5 2.2-2.5 4.5-5.2 6.7-7.6 1.2 5.2 2.8 10.2 4.8 15 3.1 7.5 6.7 15.2 13.5 21zM162.8 56l-13-3.2-2.3-8.8-13.3-3.1-2.7-9.6-31.3-7.1-30.7 7.1-2.7 9.6L53.4 44c-.9 3-1.7 6-2.4 8.9L38 56c-1 27.6 6.6 51.9 20.4 73.6 10.1 15.5 25.2 31.9 41.8 40 11.2-5.4 21.2-14.3 30.2-24.4C152.1 120 164 90.6 162.8 56zm-38.3 83.6c-7.1 8-15.1 15.9-24.1 20.5-8.6-4.3-16.1-11.7-22.9-19.2C59.7 120 47.9 96.8 46 69.6c-.2-2.2-.3-4.4-.2-6.7l11-2.5 2.5-9.1L72.9 48l.1-.3 2.4-9.4 24.6-5.8 25.4 5.8 2.4 9.6 13.8 3.3 2.3 9.1 11.1 2.5c-.2 29.7-12 54.6-30.5 76.8zM128.6 168.5c1.5-.1 2.4-.9 2.4-2.5 0-1.9-1.2-2.7-3.4-2.7h-3.5v9.4h1.6v-4h1.5l2.4 4h1.7l-2.7-4.2zm-2.9-1.1v-2.8h1.9c.9 0 2 .2 2 1.4 0 1.3-1 1.5-2.1 1.5h-1.8v-.1zM127.5 160.2c-4.4 0-8 3.6-8 8s3.6 8 8 8 8-3.6 8-8c0-4.3-3.6-8-8-8zm0 15.3c-4 0-7.2-3.2-7.2-7.2s3.2-7.2 7.2-7.2 7.2 3.2 7.2 7.2-3.2 7.2-7.2 7.2z"/></svg>
