<svg xmlns="http://www.w3.org/2000/svg" xml:space="preserve" width="361" height="361"><path d="M359.975 99.714a518 518 0 0 0-.162-10.864c-.213-7.887-.678-15.843-2.079-23.642-1.423-7.92-3.746-15.291-7.409-22.486a75.6 75.6 0 0 0-33.051-33.05c-7.191-3.661-14.558-5.983-22.474-7.406C286.998.863 279.039.399 271.149.185c-3.621-.098-7.242-.14-10.864-.162C255.986-.002 251.686 0 247.386 0H112.613c-4.3 0-8.599-.002-12.899.024-3.622.022-7.243.064-10.864.162-7.89.213-15.849.678-23.651 2.081-7.915 1.423-15.282 3.745-22.474 7.406a75.6 75.6 0 0 0-33.051 33.05c-3.663 7.195-5.986 14.566-7.409 22.486C.864 73.007.399 80.963.186 88.85c-.098 3.621-.14 7.242-.162 10.864-.026 4.299-.024 8.599-.024 12.899v134.775c0 4.3-.002 8.599.024 12.899.022 3.622.064 7.243.162 10.864.213 7.887.678 15.843 2.079 23.642 1.423 7.92 3.746 15.291 7.409 22.486a75.6 75.6 0 0 0 33.051 33.049c7.191 3.661 14.558 5.983 22.474 7.406 7.802 1.403 15.761 1.867 23.651 2.081 3.621.098 7.242.14 10.864.162 4.3.026 8.599.024 12.899.024h134.775c4.3 0 8.599.002 12.899-.024 3.622-.022 7.243-.064 10.864-.162 7.89-.213 15.849-.678 23.651-2.081 7.915-1.423 15.282-3.745 22.474-7.406a75.58 75.58 0 0 0 33.051-33.049c3.663-7.195 5.986-14.566 7.409-22.486 1.401-7.799 1.866-15.755 2.079-23.642.098-3.621.14-7.242.162-10.864.026-4.3.024-8.599.024-12.899V112.613c-.002-4.3 0-8.6-.026-12.899m-152.4 138.863c-.858 10.085-2.487 23.533-4.615 37.23-1.513 9.747-2.743 15.009-3.863 18.776-1.816 6.105-8.601 11.446-19.211 11.446s-17.396-5.341-19.211-11.446c-1.12-3.767-2.35-9.028-3.864-18.776-2.127-13.697-3.756-27.145-4.615-37.23-.901-10.584-1.368-17.203-.537-24.892.43-3.97 1.792-6.757 4.37-9.476 4.938-5.209 13.614-8.549 23.856-8.549s18.918 3.34 23.856 8.549c2.578 2.719 3.941 5.506 4.37 9.476.832 7.689.365 14.308-.536 24.892M136.984 213a4.8 4.8 0 0 1 1.508 3.762c-.242 4.307-.154 8.49.134 13.219.076 1.257-1.333 2.064-2.373 1.354-20.713-14.147-34.247-38.06-33.902-65.054.526-41.042 33.441-74.859 74.469-76.448 44.147-1.711 80.609 33.697 80.609 77.458 0 26.577-13.451 50.069-33.902 64.041-1.042.712-2.455-.093-2.377-1.352.287-4.726.375-8.91.132-13.217a4.8 4.8 0 0 1 1.51-3.765c12.196-11.447 19.827-27.702 19.827-45.707 0-35.401-29.496-64.046-65.21-62.663-32.861 1.273-59.364 28.117-60.23 60.98-.493 18.673 7.229 35.588 19.805 47.392m69.84-55.15c0 14.873-12.061 26.93-26.939 26.93s-26.938-12.057-26.938-26.93 12.06-26.93 26.938-26.93 26.939 12.057 26.939 26.93m11.37 118.632c-1.104.389-2.225-.529-2.051-1.686a646 646 0 0 0 1.675-11.85 3.98 3.98 0 0 1 2.337-3.136c35.674-15.577 60.67-51.182 60.67-92.52 0-55.916-45.732-101.356-101.769-100.903-54.816.443-99.576 45.115-100.104 99.914-.403 41.756 24.704 77.803 60.658 93.506a3.98 3.98 0 0 1 2.343 3.134 667 667 0 0 0 1.676 11.855c.174 1.158-.947 2.075-2.052 1.686-45.489-15.995-78.065-59.635-77.433-110.652.781-62.979 52.404-114.074 115.407-114.253 63.978-.181 116.084 51.797 116.084 115.713 0 50.389-32.387 93.35-77.441 109.192" style="fill:#fff"/></svg>