<svg xmlns="http://www.w3.org/2000/svg" viewBox="0 0 523.801 234.398"><path fill="hsla(0, 0%, 100%, 1)" d="M28.654 33.217V29.26a3.987 3.987 0 0 0-3.982-3.988h-7.633v-3.666c-.013-4.285.956-6.852 1.828-7.786l.041-.051a4.46 4.46 0 0 1 2.155-1.176 52 52 0 0 1 8.52-.661h1.466a3.987 3.987 0 0 0 3.987-3.989V4.371A3.98 3.98 0 0 0 31.811.456 43 43 0 0 0 30.19.175C29.437.059 25.485 0 24.71 0h3.178-3.232C18.233 0 12.764 1.5 9.102 5.429l-.006.006C5.517 9.378 4.23 14.952 4.212 21.728V96.4a3.987 3.987 0 0 0 3.989 3.987h4.85a3.985 3.985 0 0 0 3.988-3.987V37.2h7.633a3.985 3.985 0 0 0 3.987-3.987m321.824 10.212a25.8 25.8 0 0 1 1.469 9.065v43.9a3.987 3.987 0 0 0 3.989 3.989h4.725a3.987 3.987 0 0 0 3.987-3.989V51.34a35.6 35.6 0 0 0-2.561-14.153 21.24 21.24 0 0 0-8.239-9.774 24.2 24.2 0 0 0-13.067-3.419h-.079a25.5 25.5 0 0 0-13.832 3.939 26.3 26.3 0 0 0-7.009 6.616 20.9 20.9 0 0 0-6.769-7.122 23.64 23.64 0 0 0-12.893-3.433h-.088a25.25 25.25 0 0 0-13.7 3.939 24.7 24.7 0 0 0-3.449 2.7v-1.378a3.987 3.987 0 0 0-3.985-3.989h-4.723a3.985 3.985 0 0 0-3.993 3.989v67.14a3.987 3.987 0 0 0 3.989 3.989h4.723a3.985 3.985 0 0 0 3.988-3.989V55.679a22.4 22.4 0 0 1 1.149-6.879 22.3 22.3 0 0 1 3.357-6.5 16.7 16.7 0 0 1 5.058-4.549 12.4 12.4 0 0 1 6.363-1.568c3.243.008 5.378.723 6.868 1.827a11.55 11.55 0 0 1 3.882 5.416 25.7 25.7 0 0 1 1.469 9.064v43.9a3.987 3.987 0 0 0 3.989 3.989h4.723a3.985 3.985 0 0 0 3.987-3.989V55.679a22.3 22.3 0 0 1 1.147-6.878 22.3 22.3 0 0 1 3.358-6.5 16.7 16.7 0 0 1 5.05-4.546 12.4 12.4 0 0 1 6.364-1.568c3.245.008 5.38.723 6.865 1.827a11.5 11.5 0 0 1 3.885 5.415M211.314 96.838a32.88 32.88 0 0 0 17.776 4.694h.077a33.14 33.14 0 0 0 17.48-4.536 29.57 29.57 0 0 0 11.587-13.514c2.634-5.85 3.859-12.759 3.861-20.654a50.2 50.2 0 0 0-3.781-20.3 30.47 30.47 0 0 0-11.387-13.749 32.25 32.25 0 0 0-17.753-4.784h-.081a33.1 33.1 0 0 0-17.55 4.606 29.5 29.5 0 0 0-11.58 13.52c-2.594 5.827-3.788 12.783-3.791 20.833a50.6 50.6 0 0 0 3.708 20.149 29.55 29.55 0 0 0 11.434 13.735m3.076-54.253a16 16 0 0 1 6.085-4.774 21.6 21.6 0 0 1 8.657-1.629 20.4 20.4 0 0 1 8.437 1.656 16.45 16.45 0 0 1 6.1 4.916c3.488 4.464 5.471 11.01 5.475 20.071v.013c0 9.34-1.977 15.97-5.342 20.249a15.75 15.75 0 0 1-6.028 4.758 21.5 21.5 0 0 1-8.636 1.627c-6.669-.077-11.023-2.143-14.611-6.588-3.527-4.474-5.52-10.964-5.525-19.93v-.019c0-9.418 2-16.08 5.393-20.35m-73.297 53.811V55.681a20.2 20.2 0 0 1 1.241-6.774 21.4 21.4 0 0 1 3.666-6.461 17.8 17.8 0 0 1 5.7-4.595 16.04 16.04 0 0 1 7.492-1.664c3.818 0 6.519.775 8.354 1.972a11.47 11.47 0 0 1 4.427 5.405 23 23 0 0 1 1.608 8.93v43.902a3.985 3.985 0 0 0 3.989 3.987h4.85a3.98 3.98 0 0 0 3.987-3.987V51.341a32.1 32.1 0 0 0-2.964-14.338 22.44 22.44 0 0 0-8.981-9.664 27.57 27.57 0 0 0-13.981-3.348h-.061a28.35 28.35 0 0 0-14.7 3.944 27.8 27.8 0 0 0-4.627 3.456V4.5a3.987 3.987 0 0 0-3.987-3.989h-4.722A3.985 3.985 0 0 0 128.4 4.5v91.9a3.985 3.985 0 0 0 3.989 3.987h4.722a3.985 3.985 0 0 0 3.987-3.987m-25.057 4.493h.01q1.149 0 2.242-.072a9.3 9.3 0 0 0 2.8-.589 3.99 3.99 0 0 0 2.52-3.712v-3.57a3.987 3.987 0 0 0-3.987-3.989h-1.873a18.9 18.9 0 0 1-5.418-.667 4.47 4.47 0 0 1-2.163-1.163l-.046-.054c-.873-.937-1.843-3.5-1.828-7.787V37.204h8.266a3.987 3.987 0 0 0 3.986-3.984v-3.96a3.987 3.987 0 0 0-3.987-3.989h-8.266V13.689A3.987 3.987 0 0 0 104.31 9.7h-4.85a3.985 3.985 0 0 0-3.989 3.989v65.476c.013 6.7 1.319 12.253 4.861 16.208 3.671 4 9.2 5.515 15.7 5.514"/><path fill="hsla(240, 75%, 76%, 1)" d="M523.065 112.594a3.99 3.99 0 0 0-3.251-1.68h-4.849a3.99 3.99 0 0 0-3.767 2.676l-30.251 86.79a3.988 3.988 0 0 0 3.767 5.3h4.85a3.985 3.985 0 0 0 3.765-2.674l30.249-86.791a4 4 0 0 0-.514-3.622"/><path fill="hsla(0, 0%, 100%, 1)" d="M338.96 114.997h-4.723a3.987 3.987 0 0 0-3.985 3.989v7.567a3.987 3.987 0 0 0 3.989 3.987h4.723a3.985 3.985 0 0 0 3.987-3.987v-7.567a3.985 3.985 0 0 0-3.987-3.989m-.004 27.523h-4.723a3.985 3.985 0 0 0-3.985 3.989v55.181a3.987 3.987 0 0 0 3.989 3.987h4.723a3.985 3.985 0 0 0 3.988-3.987v-55.181a3.985 3.985 0 0 0-3.987-3.989m-17.489 51.738h-1.873a19 19 0 0 1-5.42-.665 4.5 4.5 0 0 1-2.162-1.163l-.045-.056c-.874-.937-1.843-3.505-1.83-7.792v-42.08h8.266a3.985 3.985 0 0 0 3.987-3.987v-3.958a3.985 3.985 0 0 0-3.987-3.989h-8.266v-11.582a3.987 3.987 0 0 0-3.987-3.989h-4.85a3.987 3.987 0 0 0-3.989 3.989v65.477c.013 6.7 1.319 12.253 4.861 16.206l.006.006c3.673 4 9.2 5.519 15.713 5.515h.063q1.115-.002 2.173-.072a9.3 9.3 0 0 0 2.8-.592 3.99 3.99 0 0 0 2.527-3.708v-3.574a3.985 3.985 0 0 0-3.987-3.989m-32.226-63.687h-4.979a3.98 3.98 0 0 0-3.706 2.513l-20.289 50.982-20.813-51.014a3.98 3.98 0 0 0-3.693-2.481h-5.231a3.987 3.987 0 0 0-3.687 5.512l26.564 64.224-2.581 6.406c-1.675 4.183-3.127 7.432-4.3 9.651a18 18 0 0 1-2.937 4.346 4 4 0 0 1-2.048 1.134 25 25 0 0 1-4.727.369h-2.2a3.987 3.987 0 0 0-3.989 3.989v3.83a3.99 3.99 0 0 0 3.215 3.912c.539.105 1.142.2 1.838.3a18 18 0 0 0 2.384.163 32 32 0 0 0 7.813-.825 14.3 14.3 0 0 0 6.621-3.789 28.5 28.5 0 0 0 4.8-6.9c1.447-2.77 3.02-6.248 4.754-10.493l30.891-76.344a3.987 3.987 0 0 0-3.7-5.485m-71.475-24.761h-4.722a3.987 3.987 0 0 0-3.989 3.989v91.9a3.985 3.985 0 0 0 3.989 3.987h4.722a3.987 3.987 0 0 0 3.987-3.987v-91.9a3.987 3.987 0 0 0-3.987-3.989M102.779 141.48c3.816 0 6.516.775 8.35 1.97a11.47 11.47 0 0 1 4.437 5.403 23 23 0 0 1 1.607 8.931v43.9a3.987 3.987 0 0 0 3.989 3.987h4.85a3.985 3.985 0 0 0 3.989-3.987v-45.046a32.14 32.14 0 0 0-2.964-14.338 22.45 22.45 0 0 0-8.982-9.665 27.57 27.57 0 0 0-13.971-3.342h-.078a28.7 28.7 0 0 0-14.665 3.86 27 27 0 0 0-4.657 3.435v-2.035a3.987 3.987 0 0 0-3.987-3.989h-4.722a3.985 3.985 0 0 0-3.989 3.989v67.14a3.985 3.985 0 0 0 3.989 3.987h4.722a3.985 3.985 0 0 0 3.987-3.987v-40.714a20.3 20.3 0 0 1 1.241-6.776 21.4 21.4 0 0 1 3.666-6.463 17.8 17.8 0 0 1 5.7-4.595 16.07 16.07 0 0 1 7.492-1.664m-89.919 62.911a33.9 33.9 0 0 0 13.588 2.5 31 31 0 0 0 10.476-1.959 33.3 33.3 0 0 0 10.3-6.075c.6-.511 1.163-1.056 1.712-1.616a18.8 18.8 0 0 0 2.326 6.6 3.96 3.96 0 0 0 3.4 1.9h.008l2.326-.025a3.99 3.99 0 0 0 3.942-3.987V159a37.4 37.4 0 0 0-2.9-15.276 23 23 0 0 0-9.461-10.687c-4.317-2.545-9.549-3.681-15.492-3.681a35.3 35.3 0 0 0-15.457 3.14A24.8 24.8 0 0 0 7.1 141.909l-.018.029a3.46 3.46 0 0 0-.515 1.816 3.64 3.64 0 0 0 2.446 3.423l3.914 1.393a5.58 5.58 0 0 0 6.2-1.753 16 16 0 0 1 1.173-1.301c2.561-2.486 6.361-3.95 12.274-3.973a21.4 21.4 0 0 1 7.486 1.166 10.23 10.23 0 0 1 4.416 3.1c2.216 2.719 3.61 6.921 3.74 12.944-5.7.089-10.753.327-15.12.735a71 71 0 0 0-16.135 3.358h-.018l-.046.014h-.008c-5.147 1.6-9.4 4.092-12.387 7.668A20.78 20.78 0 0 0 0 184.189v.129a22.06 22.06 0 0 0 3.39 12.215 21.1 21.1 0 0 0 9.474 7.859m32.473-20.784a23.5 23.5 0 0 1-7.875 8.205 19.34 19.34 0 0 1-10.63 3.019c-5.021-.01-8.387-1.161-10.661-3.039a8.9 8.9 0 0 1-2.494-3.229 11.5 11.5 0 0 1-.852-4.552 10.34 10.34 0 0 1 1.331-5.239c.675-1.208 2.167-2.62 4.895-3.926 2.594-1.256 6.792-2.415 12.379-3.223a139 139 0 0 1 16.816-1.181v2.467a20.86 20.86 0 0 1-2.908 10.7m140.386-50.573c-4.317-2.545-9.549-3.681-15.492-3.681a35.3 35.3 0 0 0-15.457 3.14 24.8 24.8 0 0 0-10.53 9.413l-.018.029a3.43 3.43 0 0 0-.515 1.816 3.64 3.64 0 0 0 2.444 3.423l3.914 1.393a5.58 5.58 0 0 0 6.2-1.753 16 16 0 0 1 1.182-1.294c2.561-2.486 6.361-3.95 12.274-3.973a21.4 21.4 0 0 1 7.486 1.166 10.23 10.23 0 0 1 4.416 3.1c2.216 2.719 3.61 6.921 3.74 12.944-5.7.089-10.753.327-15.12.735a71 71 0 0 0-16.135 3.358l-.018.006-.046.013h-.008c-5.147 1.6-9.4 4.092-12.387 7.668a20.78 20.78 0 0 0-4.5 13.646v.129a22.03 22.03 0 0 0 3.39 12.215 21.1 21.1 0 0 0 9.472 7.859 33.9 33.9 0 0 0 13.59 2.5 31 31 0 0 0 10.476-1.959 33.3 33.3 0 0 0 10.3-6.075c.6-.511 1.163-1.056 1.712-1.616a18.8 18.8 0 0 0 2.326 6.6 3.96 3.96 0 0 0 3.4 1.9h.008l2.334-.027a3.987 3.987 0 0 0 3.942-3.987v-42.73a37.4 37.4 0 0 0-2.9-15.276 23 23 0 0 0-9.467-10.686m-3.254 50.576a23.5 23.5 0 0 1-7.875 8.205 19.34 19.34 0 0 1-10.63 3.019c-5.021-.01-8.387-1.161-10.661-3.039a8.9 8.9 0 0 1-2.494-3.229 11.5 11.5 0 0 1-.852-4.552 10.34 10.34 0 0 1 1.331-5.239c.675-1.208 2.167-2.62 4.895-3.926 2.594-1.256 6.792-2.415 12.379-3.223a139 139 0 0 1 16.816-1.181v2.467a20.86 20.86 0 0 1-2.908 10.7M30.769 91.237a21.1 21.1 0 0 0 9.472 7.857 33.9 33.9 0 0 0 13.59 2.5 31 31 0 0 0 10.476-1.959 33.3 33.3 0 0 0 10.3-6.074c.6-.511 1.163-1.058 1.712-1.616a18.8 18.8 0 0 0 2.326 6.6 3.96 3.96 0 0 0 3.4 1.9h.008l2.334-.027a3.987 3.987 0 0 0 3.931-3.986V53.703a37.4 37.4 0 0 0-2.9-15.278 23 23 0 0 0-9.467-10.685c-4.317-2.545-9.549-3.682-15.492-3.682a35.3 35.3 0 0 0-15.447 3.141 24.8 24.8 0 0 0-10.53 9.413l-.018.027a3.45 3.45 0 0 0-.517 1.817 3.64 3.64 0 0 0 2.445 3.423l3.914 1.393a5.5 5.5 0 0 0 1.855.321 5.62 5.62 0 0 0 4.344-2.072 16 16 0 0 1 1.182-1.3c2.561-2.486 6.361-3.95 12.274-3.973a21.4 21.4 0 0 1 7.486 1.168 10.2 10.2 0 0 1 4.416 3.1c2.216 2.717 3.61 6.919 3.74 12.942-5.7.089-10.753.329-15.12.735a71 71 0 0 0-16.135 3.36h-.018l-.046.014h-.008c-5.147 1.6-9.4 4.091-12.387 7.668a20.78 20.78 0 0 0-4.5 13.646v.129a22.04 22.04 0 0 0 3.39 12.215m41.939-12.914a23.5 23.5 0 0 1-7.875 8.207 19.35 19.35 0 0 1-10.63 3.017c-5.021-.008-8.387-1.16-10.661-3.038a8.86 8.86 0 0 1-2.494-3.231 11.5 11.5 0 0 1-.852-4.55 10.35 10.35 0 0 1 1.329-5.237c.675-1.206 2.167-2.62 4.895-3.926 2.594-1.256 6.792-2.415 12.379-3.221a138 138 0 0 1 16.816-1.182v2.468a20.86 20.86 0 0 1-2.908 10.7m325.064 112.548c-3.216 2.572-7.034 3.878-12.106 3.9-6.677-.073-11.042-2.132-14.622-6.535-3.512-4.415-5.512-10.924-5.515-19.981v-.022c0-9.429 1.966-16.114 5.29-20.38a15.6 15.6 0 0 1 5.949-4.75 21 21 0 0 1 8.515-1.621 18.2 18.2 0 0 1 12.13 4.062 17.1 17.1 0 0 1 4.225 5.3 3.23 3.23 0 0 0 3.915 1.616l5.992-2.088a3.214 3.214 0 0 0 1.795-4.467 30 30 0 0 0-2.467-4.2 28.3 28.3 0 0 0-10.9-9.263 33.4 33.4 0 0 0-14.665-3.141h-.081a32.2 32.2 0 0 0-17.315 4.625 29.77 29.77 0 0 0-11.422 13.5c-2.6 5.827-3.789 12.784-3.791 20.833a50.2 50.2 0 0 0 3.711 20.1 30 30 0 0 0 11.407 13.71 32.34 32.34 0 0 0 17.666 4.77h.126a32.67 32.67 0 0 0 19.989-6.281 28.65 28.65 0 0 0 9.456-13.242 3.183 3.183 0 0 0-1.958-4.1l-5.865-2.045a3.16 3.16 0 0 0-4 1.8 18.2 18.2 0 0 1-5.464 7.905m79.866-19.418a18.3 18.3 0 0 0-6.117-5.48 19 19 0 0 0-2.071-1.021 43.5 43.5 0 0 0-9.7-2.677q-4.334-.692-8.717-1.222c-.361-.045-.718-.1-1.08-.139a47.7 47.7 0 0 1-8.186-1.645 9.6 9.6 0 0 1-4.611-2.779c-.793-.9-1.412-2.364-1.426-5.075a10.2 10.2 0 0 1 .774-4.064 8.95 8.95 0 0 1 2.331-3.086c1.98-1.734 5.26-2.907 10.394-2.91 4.841.024 8.311 1.24 11.1 3.547a14.6 14.6 0 0 1 4.265 6.8 3.18 3.18 0 0 0 4.059 1.974l6.01-2.095a3.19 3.19 0 0 0 1.993-4 27.3 27.3 0 0 0-3.192-6.567 25.1 25.1 0 0 0-10.308-8.918 32.55 32.55 0 0 0-13.789-2.794h-.034a30.9 30.9 0 0 0-14.18 2.99 21.1 21.1 0 0 0-12 19.33v.075c0 4.427.911 8.387 3.17 11.549a17.9 17.9 0 0 0 6.034 5.322 19 19 0 0 0 2.186 1.039 45.5 45.5 0 0 0 9.644 2.593c2.133.341 4.268.645 6.4.929 1.109.148 2.216.3 3.325.432a39.3 39.3 0 0 1 7.94 1.733 10.55 10.55 0 0 1 4.676 2.952c.766.865 1.41 2.392 1.422 5.2a11.6 11.6 0 0 1-.9 4.644 10.5 10.5 0 0 1-2.719 3.588c-2.315 2.033-6.109 3.354-11.924 3.357-5.632-.019-9.751-1.412-13-4.024a16.47 16.47 0 0 1-4.9-6.768 3.16 3.16 0 0 0-3.974-1.744l-5.844 2.037a3.18 3.18 0 0 0-1.935 4.162 27.35 27.35 0 0 0 8.417 11.54c5.643 4.466 12.834 6.6 21.034 6.6h.112a36.4 36.4 0 0 0 14.136-2.6 24 24 0 0 0 10.37-8.039 21.65 21.65 0 0 0 3.962-12.946v-.07c0-4.513-.9-8.526-3.148-11.738"/></svg>