<?xml version="1.0" encoding="UTF-8"?>
<svg id="Layer_1" data-name="Layer 1" xmlns="http://www.w3.org/2000/svg" version="1.1" viewBox="0 0 67.9 50">
  <defs>
    <style>
      .cls-1 {
        fill: #fff;
        stroke-width: 0px;
      }
    </style>
  </defs>
  <path class="cls-1" d="M65.9,2.8h-2.4c-.8,0-1.6.5-1.9,1.3l-14.9,42.7c-.4,1,.2,2.1,1.2,2.5.2,0,.4.1.6.1h2.4c.8,0,1.6-.5,1.9-1.3l14.9-42.7c.4-1-.2-2.1-1.2-2.5-.2,0-.4-.1-.6-.1"/>
  <path class="cls-1" d="M12,16.4v-1.9c0-1.1-.9-2-2-2h-3.8v-1.8c0-2.1.5-3.4.9-3.8h0c.3-.3.7-.5,1.1-.6,1.4-.2,2.8-.3,4.2-.3h.7c1.1,0,2-.9,2-2v-1.8c0-.9-.7-1.7-1.6-1.9-.2,0-.5,0-.8-.1C12.4,0,10.5,0,10.1,0h0C6.9,0,4.2.7,2.4,2.7h0C.6,4.6,0,7.4,0,10.7v36.8c0,1.1.9,2,2,2h2.4c1.1,0,2-.9,2-2,0,0,0,0,0,0v-29.2h3.8c1.1,0,2-.9,2-2h0"/>
  <path class="cls-1" d="M36.9,13.6c-2.3-1.3-5-1.9-7.6-1.8-2.6,0-5.2.5-7.6,1.5-2.1,1-3.9,2.6-5.2,4.6h0c-.2.3-.3.6-.3.9,0,.8.5,1.4,1.2,1.7h0l1.9.7c1.1.4,2.3,0,3.1-.9.2-.2.4-.4.6-.6,1.3-1.2,3.1-1.9,6-2,1.3,0,2.5.2,3.7.6.8.3,1.6.8,2.2,1.5,1.1,1.3,1.8,3.4,1.8,6.4-2.8,0-5.3.2-7.4.4-2.7.2-5.4.8-7.9,1.7h0c-2.4.6-4.5,2-6.1,3.8-1.5,1.9-2.3,4.3-2.2,6.7h0c0,2.2.5,4.3,1.7,6.1,1.1,1.7,2.8,3.1,4.7,3.9,2.1.9,4.4,1.3,6.7,1.2,1.8,0,3.5-.3,5.2-1,1.9-.7,3.6-1.7,5.1-3,.3-.3.6-.5.8-.8.2,1.1.6,2.2,1.1,3.3.4.6,1,.9,1.7.9h1.1c1.1,0,1.9-.9,1.9-2v-21c0-2.6-.4-5.1-1.4-7.5-1-2.2-2.6-4-4.7-5.3M35.3,38.5c-.9,1.6-2.3,3-3.9,4-1.6,1-3.4,1.5-5.2,1.5-1.9.1-3.7-.4-5.2-1.5-.5-.4-.9-1-1.2-1.6-.3-.7-.4-1.5-.4-2.2,0-.9.2-1.8.7-2.6.6-.9,1.4-1.5,2.4-1.9,1.9-.8,4-1.4,6.1-1.6,2.7-.4,5.5-.6,8.3-.6v1.2c0,1.9-.5,3.7-1.4,5.3"/>
</svg>