<?xml version="1.0" encoding="utf-8"?>
<!-- Generator: Adobe Illustrator 28.3.0, SVG Export Plug-In . SVG Version: 6.00 Build 0)  -->
<svg version="1.1" id="Layer_1" xmlns="http://www.w3.org/2000/svg" xmlns:xlink="http://www.w3.org/1999/xlink" x="0px" y="0px"
	 viewBox="0 0 1043.6 592.8" style="enable-background:new 0 0 1043.6 592.8;" xml:space="preserve">
<style type="text/css">
	.st0{display:none;}
	.st1{display:inline;}
	.st2{fill:#FFFFFF;}
	.st3{fill:none;}
</style>
<g id="Background" class="st0">
	<rect x="-294.8" y="-279.9" class="st1" width="1633.8" height="1150.1"/>
</g>
<g id="Symbol">
	<g>
		<g>
			<g>
				<path class="st2" d="M588.6,296.4c0,163.7-131.8,296.4-294.3,296.4S0,460,0,296.4S131.8,0,294.3,0S588.6,132.7,588.6,296.4"/>
				<path class="st2" d="M911.5,296.4c0,154.1-65.9,279-147.2,279s-147.2-124.9-147.2-279s65.9-279,147.2-279
					S911.5,142.3,911.5,296.4"/>
				<path class="st2" d="M1043.6,296.4c0,138-23.2,249.9-51.8,249.9S940,434.4,940,296.4s23.2-249.9,51.8-249.9
					S1043.6,158.3,1043.6,296.4"/>
			</g>
		</g>
		<path class="st3" d="M1339-279.9h-296.3v0.2H1.5v-0.2h-296.3V870.2h119.5v0.4h1410.4v-0.4H1339V-279.9z M1042.7,16.6v557.7H1.5
			V16.6H1042.7z"/>
	</g>
</g>
</svg>
