<svg xmlns="http://www.w3.org/2000/svg" xml:space="preserve" viewBox="0 0 1043.6 592.8"><path d="M588.6 296.4c0 163.7-131.8 296.4-294.3 296.4S0 460 0 296.4 131.8 0 294.3 0s294.3 132.7 294.3 296.4m322.9 0c0 154.1-65.9 279-147.2 279s-147.2-124.9-147.2-279 65.9-279 147.2-279 147.2 124.9 147.2 279m132.1 0c0 138-23.2 249.9-51.8 249.9S940 434.4 940 296.4s23.2-249.9 51.8-249.9 51.8 111.8 51.8 249.9" style="fill:#fff"/><path d="M1339-279.9h-296.3v.2H1.5v-.2h-296.3V870.2h119.5v.4h1410.4v-.4H1339zM1042.7 16.6v557.7H1.5V16.6z" style="fill:none"/></svg>