<svg xmlns="http://www.w3.org/2000/svg" data-name="Layer 1" viewBox="0 0 600 600"><path d="M600 300c0 165.7-134.3 300-300 300S0 465.7 0 300 134.3 0 300 0s300 134.3 300 300" style="fill:#231f20;fill-rule:evenodd;stroke-width:0"/><path d="M66.7 297.9c0-127.7 103.5-231.3 231.2-231.3s231.2 103.5 231.2 231.3h-57.8c0-95.8-77.7-173.4-173.4-173.4s-173.4 77.7-173.4 173.4 77.7 173.4 173.4 173.4v57.8c-127.7 0-231.2-103.5-231.2-231.2m231.2 138.8c-76.6 0-138.7-62.1-138.7-138.8s62.1-138.7 138.7-138.7 138.8 62.1 138.8 138.7h-50.5c0-48.8-39.5-88.3-88.3-88.3s-88.3 39.5-88.3 88.3 39.5 88.3 88.3 88.3z" style="fill-rule:evenodd;stroke-width:0;fill:#fff"/></svg>