<?xml version="1.0" encoding="utf-8"?>
<!-- Generator: Adobe Illustrator 20.0.0, SVG Export Plug-In . SVG Version: 6.00 Build 0)  -->
<svg version="1.1" id="Layer_1" xmlns="http://www.w3.org/2000/svg" xmlns:xlink="http://www.w3.org/1999/xlink" x="0px" y="0px"
	 viewBox="0 0 144 144" style="enable-background:new 0 0 144 144;" xml:space="preserve">
<style type="text/css">
	.st0{fill:#ffffff;}
	.st1{fill:none;stroke:#ffffff;stroke-width:9.5;stroke-linecap:round;stroke-miterlimit:10;}
</style>
<path class="st0" d="M16.9,45.9l-1.1,2.2l-1.3-0.6l2.8-5.8l1.3,0.6l-1.1,2.2L25,48l-0.7,1.5L16.9,45.9z M34.1,35l-1.3,1.5l-4.7-0.4
	l-0.6,0.7l3,2.5l-1.1,1.3l-7.4-6.2l1.9-2.2c1.7-2,3.3-1.8,4.5-0.8c1.1,0.9,1.2,2.2,0.7,3.3L34.1,35z M25.1,33.1l-0.9,1l2.3,1.9
	l0.9-1.1c0.7-0.8,0.6-1.7-0.1-2.2C26.6,32.2,25.8,32.3,25.1,33.1z M35.6,21.3l1.2-0.9l8.5,5.8l-1.4,1l-2.1-1.4L38.8,28l0.6,2.4
	l-1.4,1L35.6,21.3z M38.4,26.7l2.4-1.7l-2.1-1.5c-0.5-0.3-1-0.7-1.4-1.1l-0.1,0c0.2,0.5,0.4,1.2,0.5,1.7L38.4,26.7z M49.8,16.4
	c0.2,0.4,0.5,1.3,0.7,1.8l1.7,4.9l-1.4,0.5l-3.2-9.1L49,14l4.2,3.1c1.4,1.1,2.1,1.6,2.6,2.1l0,0c-0.2-0.5-0.5-1.3-0.7-1.8l-1.8-5
	l1.4-0.5l3.2,9.1l-1.4,0.5l-4-3C50.8,17.3,50.3,16.8,49.8,16.4L49.8,16.4z M68.5,12c-0.2-0.7-0.7-1.2-1.5-1.1
	c-0.8,0.1-1.3,0.6-1.2,1.3c0.1,0.8,0.8,1.1,1.8,1.4c2.1,0.5,2.9,1.5,3,2.9c0.1,1.4-0.8,3-2.9,3.2c-1.8,0.1-3.1-0.8-3.6-2.6l1.7-0.1
	c0.2,0.9,0.8,1.5,1.8,1.4c1-0.1,1.4-0.8,1.4-1.6c-0.1-0.9-0.7-1.4-2-1.7c-1.9-0.4-2.7-1.4-2.9-2.7c-0.1-1.5,1.1-2.7,2.7-2.8
	c1.7-0.1,2.9,0.8,3.2,2.3L68.5,12z M79,10l1.7,0.2l-1.2,9.5l-1.7-0.2L79,10z M92.8,15.6c0.1-0.7-0.2-1.3-0.9-1.6
	c-0.7-0.3-1.4,0-1.6,0.7c-0.3,0.7,0.2,1.3,1.1,2c1.7,1.3,2.1,2.5,1.6,3.9c-0.5,1.3-1.9,2.5-4,1.8c-1.7-0.6-2.6-1.9-2.2-3.8l1.6,0.6
	c-0.2,0.9,0.2,1.7,1.1,2c0.9,0.3,1.6-0.2,1.9-0.9c0.3-0.9-0.1-1.5-1.2-2.3c-1.6-1.2-2-2.3-1.5-3.6c0.5-1.4,2-2,3.6-1.5
	c1.6,0.6,2.4,1.9,2,3.4L92.8,15.6z M103.9,20.1l-2-1.3l0.8-1.2l5.5,3.5l-0.8,1.2l-2-1.3l-4.4,6.9L99.5,27L103.9,20.1z M118,29.4
	c2.1,2.3,1.7,5.4-0.3,7.2c-2.1,1.9-5.2,1.9-7.2-0.2c-2.4-2.6-1.5-5.6,0.3-7.2C112.7,27.2,115.9,27.2,118,29.4z M111.5,35.3
	c1.3,1.4,3.4,1.4,5,0c1.5-1.4,1.7-3.5,0.4-4.9c-1.3-1.4-3.4-1.4-5,0C110.4,31.8,110.2,33.9,111.5,35.3z M121,51.9l-0.9-1.8l2.2-4.2
	l-0.4-0.8l-3.5,1.8l-0.8-1.5l8.6-4.4l1.3,2.6c1.2,2.3,0.3,3.8-1,4.4c-1.2,0.6-2.5,0.2-3.3-0.7L121,51.9z M126.3,44.3l-0.6-1.2
	l-2.7,1.4l0.6,1.2c0.5,0.9,1.3,1.2,2.1,0.8C126.6,46.1,126.8,45.3,126.3,44.3z M18.9,71.9l0.1,2.6c0.1,1.8-0.7,3.1-2.5,3.2
	c-1.6,0.1-2.7-0.9-2.8-3.1l0-1l-3,0.1l-0.1-1.4L18.9,71.9z M17.8,74.6l-0.1-1.1l-2.9,0.1l0.1,1.1c0.1,1.3,0.8,1.6,1.5,1.6
	C17.3,76.2,17.9,75.7,17.8,74.6z M20.7,84.5c0.6,2.7-1,4.8-3.3,5.3c-2.4,0.6-4.7-0.8-5.3-3.2c-0.7-3,1.3-4.8,3.3-5.3
	C17.7,80.7,20.1,82,20.7,84.5z M13.4,86.2c0.4,1.6,2,2.5,3.7,2.1c1.7-0.4,2.8-1.9,2.4-3.6c-0.4-1.6-2-2.5-3.7-2.1
	C14,83.1,13,84.6,13.4,86.2z M23.8,94.2c1.3,2.7,0.3,4.9-1.8,5.9c-2,1-4.5,0.3-5.7-2.3l-1.2-2.5l7.5-3.6L23.8,94.2z M17.5,97.2
	c0.9,1.9,2.5,2.2,3.9,1.6c1.5-0.7,2.1-2.2,1.3-4l-0.6-1.2L16.9,96L17.5,97.2z M30.2,108.6l-1-1.3c0.5-0.7,0.5-1.8-0.2-2.8
	c-0.9-1.2-2.7-1.5-4.2-0.3c-1.4,1.1-1.8,2.9-0.8,4.2c0.8,1,1.8,1.2,2.7,0.9l1,1.3c-1.7,0.5-3.4,0.2-4.7-1.5c-1.6-2.1-1.1-4.6,1-6.1
	c2-1.5,4.6-1.2,6.1,0.8C31.4,105.7,30.9,107.6,30.2,108.6z M36.2,111.1l1,0.9l-3.2,8.3l-1.1-1l0.8-2l-2.5-2.2l-1.9,1l-1.1-1
	L36.2,111.1z M32.2,114.5l1.9,1.7l0.9-2.1c0.2-0.5,0.4-1,0.6-1.4l0,0c-0.4,0.2-0.9,0.5-1.3,0.8L32.2,114.5z M43.9,119.3
	c0.3-0.6,0.1-1.2-0.4-1.5c-0.6-0.4-1.2-0.2-1.5,0.3c-0.4,0.6-0.1,1.2,0.6,1.9c1.2,1.4,1.2,2.5,0.6,3.6c-0.6,1-2.1,1.7-3.7,0.7
	c-1.3-0.8-1.8-2.1-1.1-3.7l1.2,0.8c-0.3,0.7-0.2,1.4,0.5,1.9c0.7,0.4,1.4,0.2,1.8-0.4c0.4-0.7,0.2-1.3-0.5-2.2
	c-1.1-1.3-1.2-2.4-0.6-3.4c0.7-1.1,2.1-1.3,3.3-0.6c1.3,0.8,1.6,2.1,1,3.3L43.9,119.3z M50,121.7l-1.9-0.8l0.5-1.2l5.1,2.2l-0.5,1.2
	l-1.9-0.8l-2.8,6.5l-1.3-0.6L50,121.7z M56.6,122.8l1.4,0.4l-2.3,8l-1.4-0.4L56.6,122.8z M62.5,126.5c0,0.4-0.1,1.2-0.2,1.6
	l-0.6,4.4l-1.3-0.2l1.1-8.2l1.3,0.2l2,4.1c0.7,1.4,1,2.1,1.2,2.6l0,0c0-0.4,0.1-1.2,0.2-1.6l0.6-4.5L68,125l-1.1,8.2l-1.3-0.2
	l-1.9-3.9C63,127.5,62.8,127,62.5,126.5L62.5,126.5z M80,128.4l0,0.3c0.1,2.3-1.1,4.6-4,4.8c-2.6,0.2-4.4-1.7-4.6-4.1
	c-0.2-2.5,1.6-4.5,4-4.7c2-0.1,3.5,0.8,4.1,2.3L78,127c-0.5-0.7-1.3-1.2-2.5-1.1c-1.7,0.1-2.8,1.5-2.7,3.3c0.1,1.9,1.5,3.1,3.1,3
	c1.4-0.1,2.4-1.2,2.5-2.5l-3.1,0.2l-0.1-1.2L80,128.4z M95.9,122.2l-1.5,0.6c-0.6-0.6-1.6-1-2.7-0.5c-1.4,0.6-2.2,2.2-1.5,4
	c0.6,1.6,2.3,2.5,3.8,1.9c1.2-0.5,1.7-1.4,1.6-2.4l1.5-0.6c0,1.7-0.7,3.3-2.7,4.1c-2.4,0.9-4.7-0.2-5.6-2.6
	c-0.9-2.4,0.1-4.8,2.4-5.7C93.5,120.3,95.1,121.2,95.9,122.2z M101.2,116c2.3-1.5,4.8-0.7,6.1,1.3c1.3,2,0.9,4.7-1.2,6.1
	c-2.5,1.7-5,0.5-6.1-1.2C98.6,120.1,99,117.4,101.2,116z M105.3,122.3c1.4-0.9,1.7-2.7,0.7-4.2c-1-1.5-2.7-2-4.2-1
	c-1.4,0.9-1.7,2.7-0.7,4.2C102.2,122.8,104,123.2,105.3,122.3z M119.3,111.3l-1,1l-3.5-2.7c-0.5-0.4-1.1-0.9-1.6-1.2l0,0
	c0.3,0.5,0.7,1.2,1,1.8l2.2,4l-0.7,0.8l-4.2-2.1c-0.5-0.3-1.2-0.6-1.8-0.9l-0.1,0.1c0.4,0.4,0.9,1,1.3,1.4l2.9,3.5l-0.9,0.9
	l-5.3-6.5l1.1-1.2l4.3,2.1c0.4,0.2,1,0.5,1.4,0.7l0,0c-0.2-0.4-0.6-1-0.8-1.4l-2.2-4.2l1.1-1.2L119.3,111.3z M115.2,103l1.4-2.1
	c1-1.5,2.4-2.2,3.9-1.2c1.4,0.9,1.7,2.3,0.5,4.1l-0.6,0.9l2.5,1.7l-0.8,1.2L115.2,103z M117.6,101.5l-0.6,1l2.4,1.6l0.6-0.9
	c0.7-1.1,0.3-1.8-0.3-2.2C119,100.4,118.2,100.5,117.6,101.5z M120.4,93.8l0.5-1.2l8.9,0.4l-0.6,1.4l-2.2-0.1l-1.3,3l1.6,1.5
	l-0.6,1.3L120.4,93.8z M124.9,96.5l1-2.3l-2.3-0.2c-0.5,0-1.1-0.1-1.5-0.2l0,0.1c0.4,0.3,0.8,0.7,1.1,1L124.9,96.5z M125.4,86.3
	c0.4,0.1,1.2,0.2,1.6,0.3l4.4,1l-0.3,1.2l-8.1-1.9l0.3-1.2l4.2-1.6c1.4-0.5,2.2-0.8,2.7-0.9l0,0c-0.4-0.1-1.2-0.2-1.6-0.3l-4.4-1
	l0.3-1.2l8.1,1.9l-0.3,1.2l-4,1.5C126.5,86,125.9,86.2,125.4,86.3L125.4,86.3z M129.9,75.5l-5.1,2.4l0.1-1.6l2.8-1.3
	c0.4-0.2,0.7-0.3,1-0.4l0,0c-0.3-0.2-0.6-0.3-1-0.5l-2.7-1.5l0.1-1.5l4.8,2.9l3.4,0.2l-0.1,1.4L129.9,75.5z M72,144
	c-39.7,0-72-32.3-72-72S32.3,0,72,0s72,32.3,72,72S111.7,144,72,144z M72,2.4C33.6,2.4,2.4,33.6,2.4,72s31.2,69.6,69.6,69.6
	s69.6-31.2,69.6-69.6S110.4,2.4,72,2.4z M72,28.5C48,28.5,28.5,48,28.5,72S48,115.5,72,115.5c24,0,43.5-19.5,43.5-43.5
	S96,28.5,72,28.5z M59,73.2H44.1c-0.7,0-1.2-0.5-1.2-1.2s0.5-1.2,1.2-1.2H59c0.7,0,1.2,0.5,1.2,1.2S59.7,73.2,59,73.2z M73.2,99.9
	c0,0.7-0.5,1.2-1.2,1.2s-1.2-0.5-1.2-1.2V44.1c0-0.7,0.5-1.2,1.2-1.2s1.2,0.5,1.2,1.2V99.9z M99.9,73.2H85c-0.7,0-1.2-0.5-1.2-1.2
	s0.5-1.2,1.2-1.2h14.9c0.7,0,1.2,0.5,1.2,1.2S100.6,73.2,99.9,73.2z"/>
</svg>
