<svg xmlns="http://www.w3.org/2000/svg" xml:space="preserve" viewBox="0 0 144 144"><path d="m16.9 45.9-1.1 2.2-1.3-.6 2.8-5.8 1.3.6-1.1 2.2L25 48l-.7 1.5zM34.1 35l-1.3 1.5-4.7-.4-.6.7 3 2.5-1.1 1.3-7.4-6.2 1.9-2.2c1.7-2 3.3-1.8 4.5-.8 1.1.9 1.2 2.2.7 3.3zm-9-1.9-.9 1 2.3 1.9.9-1.1c.7-.8.6-1.7-.1-2.2s-1.5-.4-2.2.4m10.5-11.8 1.2-.9 8.5 5.8-1.4 1-2.1-1.4-3 2.2.6 2.4-1.4 1zm2.8 5.4 2.4-1.7-2.1-1.5c-.5-.3-1-.7-1.4-1.1h-.1c.2.5.4 1.2.5 1.7zm11.4-10.3c.2.4.5 1.3.7 1.8l1.7 4.9-1.4.5-3.2-9.1L49 14l4.2 3.1c1.4 1.1 2.1 1.6 2.6 2.1-.2-.5-.5-1.3-.7-1.8l-1.8-5 1.4-.5 3.2 9.1-1.4.5-4-3c-1.7-1.2-2.2-1.7-2.7-2.1M68.5 12c-.2-.7-.7-1.2-1.5-1.1s-1.3.6-1.2 1.3c.1.8.8 1.1 1.8 1.4 2.1.5 2.9 1.5 3 2.9s-.8 3-2.9 3.2c-1.8.1-3.1-.8-3.6-2.6l1.7-.1c.2.9.8 1.5 1.8 1.4s1.4-.8 1.4-1.6c-.1-.9-.7-1.4-2-1.7-1.9-.4-2.7-1.4-2.9-2.7-.1-1.5 1.1-2.7 2.7-2.8 1.7-.1 2.9.8 3.2 2.3zM79 10l1.7.2-1.2 9.5-1.7-.2zm13.8 5.6c.1-.7-.2-1.3-.9-1.6s-1.4 0-1.6.7c-.3.7.2 1.3 1.1 2 1.7 1.3 2.1 2.5 1.6 3.9-.5 1.3-1.9 2.5-4 1.8-1.7-.6-2.6-1.9-2.2-3.8l1.6.6c-.2.9.2 1.7 1.1 2s1.6-.2 1.9-.9c.3-.9-.1-1.5-1.2-2.3-1.6-1.2-2-2.3-1.5-3.6.5-1.4 2-2 3.6-1.5 1.6.6 2.4 1.9 2 3.4zm11.1 4.5-2-1.3.8-1.2 5.5 3.5-.8 1.2-2-1.3-4.4 6.9-1.5-.9zm14.1 9.3c2.1 2.3 1.7 5.4-.3 7.2-2.1 1.9-5.2 1.9-7.2-.2-2.4-2.6-1.5-5.6.3-7.2 1.9-2 5.1-2 7.2.2m-6.5 5.9c1.3 1.4 3.4 1.4 5 0 1.5-1.4 1.7-3.5.4-4.9s-3.4-1.4-5 0c-1.5 1.4-1.7 3.5-.4 4.9m9.5 16.6-.9-1.8 2.2-4.2-.4-.8-3.5 1.8-.8-1.5 8.6-4.4 1.3 2.6c1.2 2.3.3 3.8-1 4.4-1.2.6-2.5.2-3.3-.7zm5.3-7.6-.6-1.2-2.7 1.4.6 1.2c.5.9 1.3 1.2 2.1.8.9-.4 1.1-1.2.6-2.2M18.9 71.9l.1 2.6c.1 1.8-.7 3.1-2.5 3.2-1.6.1-2.7-.9-2.8-3.1v-1l-3 .1-.1-1.4zm-1.1 2.7-.1-1.1-2.9.1.1 1.1c.1 1.3.8 1.6 1.5 1.6.9-.1 1.5-.6 1.4-1.7m2.9 9.9c.6 2.7-1 4.8-3.3 5.3-2.4.6-4.7-.8-5.3-3.2-.7-3 1.3-4.8 3.3-5.3 2.3-.6 4.7.7 5.3 3.2m-7.3 1.7c.4 1.6 2 2.5 3.7 2.1s2.8-1.9 2.4-3.6c-.4-1.6-2-2.5-3.7-2.1-1.8.5-2.8 2-2.4 3.6m10.4 8c1.3 2.7.3 4.9-1.8 5.9-2 1-4.5.3-5.7-2.3l-1.2-2.5 7.5-3.6zm-6.3 3c.9 1.9 2.5 2.2 3.9 1.6 1.5-.7 2.1-2.2 1.3-4l-.6-1.2-5.2 2.4zm12.7 11.4-1-1.3c.5-.7.5-1.8-.2-2.8-.9-1.2-2.7-1.5-4.2-.3-1.4 1.1-1.8 2.9-.8 4.2.8 1 1.8 1.2 2.7.9l1 1.3c-1.7.5-3.4.2-4.7-1.5-1.6-2.1-1.1-4.6 1-6.1 2-1.5 4.6-1.2 6.1.8 1.3 1.9.8 3.8.1 4.8m6 2.5 1 .9-3.2 8.3-1.1-1 .8-2-2.5-2.2-1.9 1-1.1-1zm-4 3.4 1.9 1.7.9-2.1c.2-.5.4-1 .6-1.4-.4.2-.9.5-1.3.8zm11.7 4.8c.3-.6.1-1.2-.4-1.5-.6-.4-1.2-.2-1.5.3-.4.6-.1 1.2.6 1.9 1.2 1.4 1.2 2.5.6 3.6-.6 1-2.1 1.7-3.7.7-1.3-.8-1.8-2.1-1.1-3.7l1.2.8c-.3.7-.2 1.4.5 1.9.7.4 1.4.2 1.8-.4.4-.7.2-1.3-.5-2.2-1.1-1.3-1.2-2.4-.6-3.4.7-1.1 2.1-1.3 3.3-.6 1.3.8 1.6 2.1 1 3.3zm6.1 2.4-1.9-.8.5-1.2 5.1 2.2-.5 1.2-1.9-.8-2.8 6.5-1.3-.6zm6.6 1.1 1.4.4-2.3 8-1.4-.4zm5.9 3.7c0 .4-.1 1.2-.2 1.6l-.6 4.4-1.3-.2 1.1-8.2 1.3.2 2 4.1c.7 1.4 1 2.1 1.2 2.6 0-.4.1-1.2.2-1.6l.6-4.5 1.2.1-1.1 8.2-1.3-.2-1.9-3.9c-.7-1.6-.9-2.1-1.2-2.6m17.5 1.9v.3c.1 2.3-1.1 4.6-4 4.8-2.6.2-4.4-1.7-4.6-4.1-.2-2.5 1.6-4.5 4-4.7 2-.1 3.5.8 4.1 2.3H78c-.5-.7-1.3-1.2-2.5-1.1-1.7.1-2.8 1.5-2.7 3.3.1 1.9 1.5 3.1 3.1 3 1.4-.1 2.4-1.2 2.5-2.5l-3.1.2-.1-1.2zm15.9-6.2-1.5.6c-.6-.6-1.6-1-2.7-.5-1.4.6-2.2 2.2-1.5 4 .6 1.6 2.3 2.5 3.8 1.9 1.2-.5 1.7-1.4 1.6-2.4l1.5-.6c0 1.7-.7 3.3-2.7 4.1-2.4.9-4.7-.2-5.6-2.6s.1-4.8 2.4-5.7c2.3-.7 3.9.2 4.7 1.2m5.3-6.2c2.3-1.5 4.8-.7 6.1 1.3s.9 4.7-1.2 6.1c-2.5 1.7-5 .5-6.1-1.2-1.4-2.1-1-4.8 1.2-6.2m4.1 6.3c1.4-.9 1.7-2.7.7-4.2s-2.7-2-4.2-1c-1.4.9-1.7 2.7-.7 4.2 1.1 1.5 2.9 1.9 4.2 1m14-11-1 1-3.5-2.7c-.5-.4-1.1-.9-1.6-1.2.3.5.7 1.2 1 1.8l2.2 4-.7.8-4.2-2.1c-.5-.3-1.2-.6-1.8-.9l-.1.1c.4.4.9 1 1.3 1.4l2.9 3.5-.9.9-5.3-6.5 1.1-1.2 4.3 2.1 1.4.7c-.2-.4-.6-1-.8-1.4l-2.2-4.2 1.1-1.2zm-4.1-8.3 1.4-2.1c1-1.5 2.4-2.2 3.9-1.2 1.4.9 1.7 2.3.5 4.1l-.6.9 2.5 1.7-.8 1.2zm2.4-1.5-.6 1 2.4 1.6.6-.9c.7-1.1.3-1.8-.3-2.2-.7-.6-1.5-.5-2.1.5m2.8-7.7.5-1.2 8.9.4-.6 1.4-2.2-.1-1.3 3 1.6 1.5-.6 1.3zm4.5 2.7 1-2.3-2.3-.2c-.5 0-1.1-.1-1.5-.2v.1c.4.3.8.7 1.1 1zm.5-10.2c.4.1 1.2.2 1.6.3l4.4 1-.3 1.2-8.1-1.9.3-1.2 4.2-1.6c1.4-.5 2.2-.8 2.7-.9-.4-.1-1.2-.2-1.6-.3l-4.4-1 .3-1.2 8.1 1.9-.3 1.2-4 1.5c-1.8.7-2.4.9-2.9 1m4.5-10.8-5.1 2.4.1-1.6 2.8-1.3c.4-.2.7-.3 1-.4-.3-.2-.6-.3-1-.5l-2.7-1.5.1-1.5 4.8 2.9 3.4.2-.1 1.4zM72 144c-39.7 0-72-32.3-72-72S32.3 0 72 0s72 32.3 72 72-32.3 72-72 72M72 2.4C33.6 2.4 2.4 33.6 2.4 72s31.2 69.6 69.6 69.6 69.6-31.2 69.6-69.6S110.4 2.4 72 2.4m0 26.1C48 28.5 28.5 48 28.5 72S48 115.5 72 115.5 115.5 96 115.5 72 96 28.5 72 28.5M59 73.2H44.1c-.7 0-1.2-.5-1.2-1.2s.5-1.2 1.2-1.2H59c.7 0 1.2.5 1.2 1.2s-.5 1.2-1.2 1.2m14.2 26.7c0 .7-.5 1.2-1.2 1.2s-1.2-.5-1.2-1.2V44.1c0-.7.5-1.2 1.2-1.2s1.2.5 1.2 1.2zm26.7-26.7H85c-.7 0-1.2-.5-1.2-1.2s.5-1.2 1.2-1.2h14.9c.7 0 1.2.5 1.2 1.2s-.5 1.2-1.2 1.2" style="fill:#fff"/></svg>