<svg width="579" height="285" viewBox="0 0 579 285" fill="none" xmlns="http://www.w3.org/2000/svg">
<path fill-rule="evenodd" clip-rule="evenodd" d="M479 20H100C55.8172 20 20 55.8172 20 100V185C20 229.183 55.8172 265 100 265H479C523.183 265 559 229.183 559 185V100C559 55.8172 523.183 20 479 20ZM100 0C44.7715 0 0 44.7715 0 100V185C0 240.228 44.7715 285 100 285H479C534.228 285 579 240.228 579 185V100C579 44.7715 534.229 0 479 0H100Z" fill="white"/>
<path d="M128.215 237.84C183.511 237.84 217.815 197.136 217.815 142.352C217.815 87.5683 183.511 46.8643 128.215 46.8643C72.9192 46.8643 38.6152 87.5683 38.6152 142.352C38.6152 197.136 72.9192 237.84 128.215 237.84ZM128.215 217.616C85.2072 217.616 62.1672 185.36 62.1672 142.352C62.1672 99.3443 85.2072 66.8322 128.215 66.8322C171.223 66.8322 194.263 99.3443 194.263 142.352C194.263 185.36 171.223 217.616 128.215 217.616Z" fill="white"/>
<path d="M311.837 237.584C351.261 237.584 379.165 218.384 379.165 184.08C379.165 142.864 346.653 134.16 311.069 126.992C283.677 121.616 263.197 115.472 263.197 94.7363C263.197 75.7923 279.581 65.2962 304.413 65.2962C331.293 65.2962 348.189 78.3522 351.517 104.464H373.277C368.669 70.6723 349.725 47.3763 303.901 47.3763C266.781 47.3763 241.693 65.5522 241.693 95.7603C241.693 130.32 269.341 139.536 301.597 146.704C334.365 153.872 356.381 159.76 356.381 184.848C356.381 207.632 338.205 219.152 312.861 219.152C278.301 219.152 259.357 203.024 256.285 172.048H233.757C235.805 208.912 260.381 237.584 311.837 237.584Z" fill="white"/>
<path d="M472.087 237.584C511.511 237.584 539.415 218.384 539.415 184.08C539.415 142.864 506.903 134.16 471.319 126.992C443.927 121.616 423.447 115.472 423.447 94.7363C423.447 75.7923 439.831 65.2962 464.663 65.2962C491.543 65.2962 508.439 78.3522 511.767 104.464H533.527C528.919 70.6723 509.975 47.3763 464.151 47.3763C427.031 47.3763 401.943 65.5522 401.943 95.7603C401.943 130.32 429.591 139.536 461.847 146.704C494.615 153.872 516.631 159.76 516.631 184.848C516.631 207.632 498.455 219.152 473.111 219.152C438.551 219.152 419.607 203.024 416.535 172.048H394.007C396.055 208.912 420.631 237.584 472.087 237.584Z" fill="white"/>
</svg>
