<svg xmlns="http://www.w3.org/2000/svg" width="579" height="285" fill="none"><path fill="#fff" fill-rule="evenodd" d="M479 20H100c-44.183 0-80 35.817-80 80v85c0 44.183 35.817 80 80 80h379c44.183 0 80-35.817 80-80v-85c0-44.183-35.817-80-80-80ZM100 0C44.772 0 0 44.772 0 100v85c0 55.228 44.772 100 100 100h379c55.228 0 100-44.772 100-100v-85C579 44.772 534.229 0 479 0H100Z" clip-rule="evenodd"/><path fill="#fff" d="M128.215 237.84c55.296 0 89.6-40.704 89.6-95.488s-34.304-95.488-89.6-95.488c-55.296 0-89.6 40.704-89.6 95.488s34.304 95.488 89.6 95.488Zm0-20.224c-43.008 0-66.048-32.256-66.048-75.264 0-43.008 23.04-75.52 66.048-75.52s66.048 32.512 66.048 75.52c0 43.008-23.04 75.264-66.048 75.264ZM311.837 237.584c39.424 0 67.328-19.2 67.328-53.504 0-41.216-32.512-49.92-68.096-57.088-27.392-5.376-47.872-11.52-47.872-32.256 0-18.944 16.384-29.44 41.216-29.44 26.88 0 43.776 13.056 47.104 39.168h21.76c-4.608-33.792-23.552-57.088-69.376-57.088-37.12 0-62.208 18.176-62.208 48.384 0 34.56 27.648 43.776 59.904 50.944 32.768 7.168 54.784 13.056 54.784 38.144 0 22.784-18.176 34.304-43.52 34.304-34.56 0-53.504-16.128-56.576-47.104h-22.528c2.048 36.864 26.624 65.536 78.08 65.536ZM472.087 237.584c39.424 0 67.328-19.2 67.328-53.504 0-41.216-32.512-49.92-68.096-57.088-27.392-5.376-47.872-11.52-47.872-32.256 0-18.944 16.384-29.44 41.216-29.44 26.88 0 43.776 13.056 47.104 39.168h21.76c-4.608-33.792-23.552-57.088-69.376-57.088-37.12 0-62.208 18.176-62.208 48.384 0 34.56 27.648 43.776 59.904 50.944 32.768 7.168 54.784 13.056 54.784 38.144 0 22.784-18.176 34.304-43.52 34.304-34.56 0-53.504-16.128-56.576-47.104h-22.528c2.048 36.864 26.624 65.536 78.08 65.536Z"/></svg>